<?xml version="1.0" encoding="UTF-8"?><svg xmlns="http://www.w3.org/2000/svg" xmlns:xlink="http://www.w3.org/1999/xlink" width="224.87999pt" zoomAndPan="magnify" viewBox="0 0 224.87999 225" height="225pt" preserveAspectRatio="xMidYMid meet" version="1.2"><defs><clipPath xml:id="clip1" id="clip1"><path d="M 0 0.0585938 L 224.761719 0.0585938 L 224.761719 224.9375 L 0 224.9375 Z M 0 0.0585938 "/></clipPath></defs><g xml:id="surface1" id="surface1"><g clip-rule="nonzero" clip-path="url(#clip1)"><path style=" stroke:none;fill-rule:nonzero;fill:rgb(26.669312%,24.308777%,19.999695%);fill-opacity:1;" d="M 176.976562 7.089844 L 47.929688 7.089844 C 36.722656 7.089844 26.53125 11.683594 19.140625 19.082031 C 11.75 26.480469 7.160156 36.6875 7.160156 47.910156 L 7.160156 177.117188 C 7.160156 188.335938 11.75 198.542969 19.140625 205.941406 C 26.53125 213.34375 36.722656 217.9375 47.929688 217.9375 L 176.976562 217.9375 C 188.183594 217.9375 198.375 213.34375 205.765625 205.941406 C 213.15625 198.542969 217.746094 188.335938 217.746094 177.117188 L 217.746094 47.910156 C 217.746094 36.6875 213.15625 26.480469 205.765625 19.082031 C 198.375 11.683594 188.183594 7.089844 176.976562 7.089844 Z M 47.929688 0.0585938 L 176.976562 0.0585938 C 190.121094 0.0585938 202.070312 5.441406 210.726562 14.113281 C 219.386719 22.785156 224.765625 34.746094 224.765625 47.910156 L 224.765625 177.117188 C 224.765625 190.277344 219.386719 202.242188 210.726562 210.910156 C 202.070312 219.582031 190.121094 224.964844 176.976562 224.964844 L 47.929688 224.964844 C 34.785156 224.964844 22.835938 219.582031 14.175781 210.910156 C 5.515625 202.242188 0.140625 190.277344 0.140625 177.117188 L 0.140625 47.910156 C 0.140625 34.746094 5.515625 22.785156 14.175781 14.113281 C 22.835938 5.441406 34.785156 0.0585938 47.929688 0.0585938 "/></g><path style=" stroke:none;fill-rule:nonzero;fill:rgb(26.669312%,24.308777%,19.999695%);fill-opacity:1;" d="M 169.996094 53.375 C 165.976562 49.347656 160.421875 46.859375 154.289062 46.859375 C 148.152344 46.859375 142.601562 49.347656 138.578125 53.375 C 134.558594 57.398438 132.074219 62.960938 132.074219 69.101562 C 132.074219 75.242188 134.558594 80.804688 138.578125 84.828125 C 142.601562 88.851562 148.152344 91.34375 154.289062 91.34375 C 160.421875 91.34375 165.976562 88.851562 169.996094 84.828125 C 174.015625 80.804688 176.5 75.242188 176.5 69.101562 C 176.5 62.960938 174.015625 57.398438 169.996094 53.375 Z M 154.289062 39.832031 C 162.359375 39.832031 169.667969 43.105469 174.957031 48.40625 C 180.25 53.703125 183.519531 61.019531 183.519531 69.101562 C 183.519531 77.183594 180.25 84.5 174.957031 89.796875 C 169.667969 95.09375 162.359375 98.371094 154.289062 98.371094 C 146.214844 98.371094 138.910156 95.09375 133.617188 89.796875 C 128.324219 84.5 125.054688 77.183594 125.054688 69.101562 C 125.054688 61.019531 128.324219 53.699219 133.617188 48.40625 C 138.910156 43.105469 146.214844 39.832031 154.289062 39.832031 "/><path style=" stroke:none;fill-rule:nonzero;fill:rgb(26.669312%,24.308777%,19.999695%);fill-opacity:1;" d="M 86.324219 53.375 C 82.304688 49.347656 76.75 46.859375 70.617188 46.859375 C 64.480469 46.859375 58.929688 49.347656 54.910156 53.375 C 50.886719 57.398438 48.402344 62.960938 48.402344 69.101562 C 48.402344 75.242188 50.886719 80.804688 54.910156 84.828125 C 58.929688 88.851562 64.480469 91.34375 70.617188 91.34375 C 76.75 91.34375 82.304688 88.851562 86.324219 84.828125 C 90.34375 80.804688 92.828125 75.242188 92.828125 69.101562 C 92.828125 62.960938 90.34375 57.398438 86.324219 53.375 Z M 70.617188 39.832031 C 78.6875 39.832031 85.996094 43.105469 91.289062 48.40625 C 96.578125 53.699219 99.847656 61.019531 99.847656 69.101562 C 99.847656 77.183594 96.578125 84.5 91.289062 89.796875 C 85.996094 95.09375 78.6875 98.371094 70.617188 98.371094 C 62.542969 98.371094 55.234375 95.09375 49.945312 89.796875 C 44.65625 84.5 41.382812 77.183594 41.382812 69.101562 C 41.382812 61.019531 44.65625 53.703125 49.945312 48.40625 C 55.234375 43.105469 62.542969 39.832031 70.617188 39.832031 "/><path style=" stroke:none;fill-rule:nonzero;fill:rgb(26.669312%,24.308777%,19.999695%);fill-opacity:1;" d="M 169.996094 140.195312 C 165.976562 136.171875 160.421875 133.683594 154.289062 133.683594 C 148.152344 133.683594 142.601562 136.171875 138.578125 140.195312 C 134.558594 144.21875 132.074219 149.78125 132.074219 155.925781 C 132.074219 162.066406 134.558594 167.625 138.578125 171.652344 C 142.601562 175.675781 148.152344 178.164062 154.289062 178.164062 C 160.421875 178.164062 165.976562 175.675781 169.996094 171.652344 C 174.015625 167.625 176.5 162.066406 176.5 155.925781 C 176.5 149.78125 174.015625 144.21875 169.996094 140.195312 Z M 154.289062 126.652344 C 162.359375 126.652344 169.667969 129.929688 174.957031 135.226562 C 180.25 140.523438 183.519531 147.839844 183.519531 155.925781 C 183.519531 164.003906 180.25 171.324219 174.957031 176.621094 C 169.667969 181.917969 162.359375 185.191406 154.289062 185.191406 C 146.214844 185.191406 138.910156 181.917969 133.617188 176.621094 C 128.324219 171.324219 125.054688 164.003906 125.054688 155.925781 C 125.054688 147.839844 128.324219 140.523438 133.617188 135.226562 C 138.910156 129.929688 146.214844 126.652344 154.289062 126.652344 "/><path style=" stroke:none;fill-rule:nonzero;fill:rgb(26.669312%,24.308777%,19.999695%);fill-opacity:1;" d="M 86.324219 140.195312 C 82.304688 136.171875 76.75 133.683594 70.617188 133.683594 C 64.480469 133.683594 58.929688 136.171875 54.910156 140.195312 C 50.886719 144.21875 48.402344 149.78125 48.402344 155.925781 C 48.402344 162.066406 50.886719 167.625 54.910156 171.652344 C 58.929688 175.675781 64.480469 178.164062 70.617188 178.164062 C 76.75 178.164062 82.304688 175.675781 86.324219 171.652344 C 90.34375 167.625 92.828125 162.066406 92.828125 155.925781 C 92.828125 149.78125 90.34375 144.21875 86.324219 140.195312 Z M 70.617188 126.652344 C 78.6875 126.652344 85.996094 129.929688 91.289062 135.226562 C 96.578125 140.523438 99.847656 147.839844 99.847656 155.925781 C 99.847656 164.003906 96.578125 171.324219 91.289062 176.621094 C 85.996094 181.917969 78.6875 185.191406 70.617188 185.191406 C 62.542969 185.191406 55.234375 181.917969 49.945312 176.621094 C 44.65625 171.324219 41.382812 164.003906 41.382812 155.925781 C 41.382812 147.839844 44.65625 140.523438 49.945312 135.226562 C 55.234375 129.929688 62.542969 126.652344 70.617188 126.652344 "/><path style=" stroke:none;fill-rule:evenodd;fill:rgb(98.429871%,87.838745%,39.99939%);fill-opacity:1;" d="M 154.289062 126.652344 C 162.359375 126.652344 169.667969 129.929688 174.957031 135.226562 C 180.25 140.523438 183.519531 147.839844 183.519531 155.925781 C 183.519531 164.003906 180.25 171.324219 174.957031 176.621094 C 169.667969 181.917969 162.359375 185.191406 154.289062 185.191406 C 146.214844 185.191406 138.910156 181.917969 133.617188 176.621094 C 128.324219 171.324219 125.054688 164.003906 125.054688 155.925781 C 125.054688 147.839844 128.324219 140.523438 133.617188 135.226562 C 138.910156 129.929688 146.214844 126.652344 154.289062 126.652344 Z M 125.054688 69.101562 C 125.054688 61.019531 128.324219 53.699219 133.617188 48.40625 C 138.910156 43.105469 146.214844 39.832031 154.289062 39.832031 C 162.359375 39.832031 169.667969 43.105469 174.957031 48.40625 C 180.25 53.703125 183.519531 61.019531 183.519531 69.101562 C 183.519531 77.183594 180.25 84.5 174.957031 89.796875 C 169.667969 95.09375 162.359375 98.371094 154.289062 98.371094 C 146.214844 98.371094 138.910156 95.09375 133.617188 89.796875 C 128.324219 84.5 125.054688 77.183594 125.054688 69.101562 Z M 176.976562 7.089844 L 47.929688 7.089844 C 36.722656 7.089844 26.53125 11.683594 19.140625 19.082031 C 11.75 26.480469 7.160156 36.6875 7.160156 47.910156 L 7.160156 177.117188 C 7.160156 188.335938 11.75 198.542969 19.140625 205.941406 C 26.53125 213.34375 36.722656 217.9375 47.929688 217.9375 L 176.976562 217.9375 C 188.183594 217.9375 198.375 213.34375 205.765625 205.941406 C 213.15625 198.542969 217.746094 188.335938 217.746094 177.117188 L 217.746094 47.910156 C 217.746094 36.6875 213.15625 26.480469 205.765625 19.082031 C 198.375 11.683594 188.183594 7.089844 176.976562 7.089844 Z M 70.617188 126.652344 C 78.6875 126.652344 85.996094 129.929688 91.289062 135.226562 C 96.578125 140.523438 99.847656 147.839844 99.847656 155.925781 C 99.847656 164.003906 96.578125 171.324219 91.289062 176.621094 C 85.996094 181.917969 78.6875 185.191406 70.617188 185.191406 C 62.542969 185.191406 55.234375 181.917969 49.945312 176.621094 C 44.65625 171.324219 41.382812 164.003906 41.382812 155.925781 C 41.382812 147.839844 44.65625 140.523438 49.945312 135.226562 C 55.234375 129.929688 62.542969 126.652344 70.617188 126.652344 Z M 91.289062 48.40625 C 96.578125 53.699219 99.847656 61.019531 99.847656 69.101562 C 99.847656 77.183594 96.578125 84.5 91.289062 89.796875 C 85.996094 95.09375 78.6875 98.371094 70.617188 98.371094 C 62.542969 98.371094 55.234375 95.09375 49.945312 89.796875 C 44.65625 84.5 41.382812 77.183594 41.382812 69.101562 C 41.382812 61.019531 44.65625 53.703125 49.945312 48.40625 C 55.234375 43.105469 62.542969 39.832031 70.617188 39.832031 C 78.6875 39.832031 85.996094 43.105469 91.289062 48.40625 "/><path style=" stroke:none;fill-rule:evenodd;fill:rgb(64.309692%,87.838745%,79.219055%);fill-opacity:1;" d="M 92.828125 69.101562 C 92.828125 62.960938 90.34375 57.398438 86.324219 53.375 C 82.304688 49.347656 76.75 46.859375 70.617188 46.859375 C 64.480469 46.859375 58.929688 49.347656 54.910156 53.375 C 50.886719 57.398438 48.402344 62.960938 48.402344 69.101562 C 48.402344 75.242188 50.886719 80.804688 54.910156 84.828125 C 58.929688 88.851562 64.480469 91.34375 70.617188 91.34375 C 76.75 91.34375 82.304688 88.851562 86.324219 84.828125 C 90.34375 80.804688 92.828125 75.242188 92.828125 69.101562 "/><path style=" stroke:none;fill-rule:evenodd;fill:rgb(64.309692%,87.838745%,79.219055%);fill-opacity:1;" d="M 138.578125 53.375 C 134.558594 57.398438 132.074219 62.960938 132.074219 69.101562 C 132.074219 75.242188 134.558594 80.804688 138.578125 84.828125 C 142.601562 88.851562 148.152344 91.34375 154.289062 91.34375 C 160.421875 91.34375 165.976562 88.851562 169.996094 84.828125 C 174.015625 80.804688 176.5 75.242188 176.5 69.101562 C 176.5 62.960938 174.015625 57.398438 169.996094 53.375 C 165.976562 49.347656 160.421875 46.859375 154.289062 46.859375 C 148.152344 46.859375 142.601562 49.347656 138.578125 53.375 "/><path style=" stroke:none;fill-rule:evenodd;fill:rgb(64.309692%,87.838745%,79.219055%);fill-opacity:1;" d="M 154.289062 133.683594 C 148.152344 133.683594 142.601562 136.171875 138.578125 140.195312 C 134.558594 144.21875 132.074219 149.78125 132.074219 155.925781 C 132.074219 162.066406 134.558594 167.625 138.578125 171.652344 C 142.601562 175.675781 148.152344 178.164062 154.289062 178.164062 C 160.421875 178.164062 165.976562 175.675781 169.996094 171.652344 C 174.015625 167.625 176.5 162.066406 176.5 155.925781 C 176.5 149.78125 174.015625 144.21875 169.996094 140.195312 C 165.976562 136.171875 160.421875 133.683594 154.289062 133.683594 "/><path style=" stroke:none;fill-rule:evenodd;fill:rgb(64.309692%,87.838745%,79.219055%);fill-opacity:1;" d="M 92.828125 155.925781 C 92.828125 149.78125 90.34375 144.21875 86.324219 140.195312 C 82.304688 136.171875 76.75 133.683594 70.617188 133.683594 C 64.480469 133.683594 58.929688 136.171875 54.910156 140.195312 C 50.886719 144.21875 48.402344 149.78125 48.402344 155.925781 C 48.402344 162.066406 50.886719 167.625 54.910156 171.652344 C 58.929688 175.675781 64.480469 178.164062 70.617188 178.164062 C 76.75 178.164062 82.304688 175.675781 86.324219 171.652344 C 90.34375 167.625 92.828125 162.066406 92.828125 155.925781 "/><path style=" stroke:none;fill-rule:evenodd;fill:rgb(94.898987%,65.489197%,33.729553%);fill-opacity:1;" d="M 217.746094 47.910156 C 217.746094 36.6875 213.15625 26.480469 205.765625 19.082031 C 199.777344 13.085938 191.949219 8.933594 183.230469 7.570312 C 186.171875 9.457031 188.894531 11.652344 191.351562 14.113281 C 200.011719 22.785156 205.390625 34.746094 205.390625 47.910156 L 205.390625 177.117188 C 205.390625 190.277344 200.011719 202.242188 191.351562 210.910156 C 188.894531 213.371094 186.171875 215.566406 183.230469 217.453125 C 191.949219 216.09375 199.777344 211.9375 205.765625 205.941406 C 213.15625 198.542969 217.746094 188.335938 217.746094 177.117188 L 217.746094 47.910156 "/><path style=" stroke:none;fill-rule:evenodd;fill:rgb(43.919373%,78.42865%,64.709473%);fill-opacity:1;" d="M 176.5 69.101562 C 176.5 62.960938 174.015625 57.398438 169.996094 53.375 C 165.976562 49.347656 160.421875 46.859375 154.289062 46.859375 C 154.164062 46.859375 154.042969 46.859375 153.921875 46.863281 C 154.492188 47.355469 155.050781 47.867188 155.582031 48.40625 C 160.875 53.703125 164.144531 61.019531 164.144531 69.101562 C 164.144531 77.183594 160.875 84.5 155.582031 89.796875 C 155.050781 90.332031 154.492188 90.847656 153.921875 91.339844 C 154.042969 91.34375 154.164062 91.34375 154.289062 91.34375 C 160.421875 91.34375 165.976562 88.851562 169.996094 84.828125 C 174.015625 80.804688 176.5 75.242188 176.5 69.101562 "/><path style=" stroke:none;fill-rule:evenodd;fill:rgb(43.919373%,78.42865%,64.709473%);fill-opacity:1;" d="M 92.828125 69.101562 C 92.828125 62.960938 90.34375 57.398438 86.324219 53.375 C 82.304688 49.347656 76.75 46.859375 70.617188 46.859375 C 70.496094 46.859375 70.371094 46.859375 70.25 46.863281 C 70.824219 47.355469 71.378906 47.867188 71.914062 48.40625 C 77.203125 53.699219 80.472656 61.019531 80.472656 69.101562 C 80.472656 77.183594 77.203125 84.5 71.914062 89.796875 C 71.378906 90.332031 70.824219 90.847656 70.25 91.339844 C 70.371094 91.34375 70.496094 91.34375 70.617188 91.34375 C 76.75 91.34375 82.304688 88.851562 86.324219 84.828125 C 90.34375 80.804688 92.828125 75.242188 92.828125 69.101562 "/><path style=" stroke:none;fill-rule:evenodd;fill:rgb(43.919373%,78.42865%,64.709473%);fill-opacity:1;" d="M 92.828125 155.925781 C 92.828125 149.78125 90.34375 144.21875 86.324219 140.195312 C 82.304688 136.171875 76.75 133.683594 70.617188 133.683594 C 70.496094 133.683594 70.371094 133.683594 70.25 133.683594 C 70.824219 134.179688 71.378906 134.691406 71.914062 135.226562 C 77.203125 140.523438 80.472656 147.839844 80.472656 155.925781 C 80.472656 164.003906 77.203125 171.324219 71.914062 176.621094 C 71.378906 177.152344 70.824219 177.667969 70.25 178.160156 C 70.371094 178.164062 70.496094 178.164062 70.617188 178.164062 C 76.75 178.164062 82.304688 175.675781 86.324219 171.652344 C 90.34375 167.625 92.828125 162.066406 92.828125 155.925781 "/><path style=" stroke:none;fill-rule:evenodd;fill:rgb(43.919373%,78.42865%,64.709473%);fill-opacity:1;" d="M 176.5 155.925781 C 176.5 149.78125 174.015625 144.21875 169.996094 140.195312 C 165.976562 136.171875 160.421875 133.683594 154.289062 133.683594 C 154.164062 133.683594 154.042969 133.683594 153.921875 133.683594 C 154.492188 134.179688 155.050781 134.691406 155.582031 135.226562 C 160.875 140.523438 164.144531 147.839844 164.144531 155.925781 C 164.144531 164.003906 160.875 171.324219 155.582031 176.621094 C 155.050781 177.152344 154.492188 177.667969 153.921875 178.160156 C 154.042969 178.164062 154.164062 178.164062 154.289062 178.164062 C 160.421875 178.164062 165.976562 175.675781 169.996094 171.652344 C 174.015625 167.625 176.5 162.066406 176.5 155.925781 "/></g></svg>