<?xml version="1.0" encoding="UTF-8"?><svg xmlns="http://www.w3.org/2000/svg" xmlns:xlink="http://www.w3.org/1999/xlink" width="224.87999pt" zoomAndPan="magnify" viewBox="0 0 224.87999 225" height="225pt" preserveAspectRatio="xMidYMid meet" version="1.2"><defs><clipPath xml:id="clip1" id="clip1"><path d="M 0 0.0585938 L 224.761719 0.0585938 L 224.761719 224.9375 L 0 224.9375 Z M 0 0.0585938 "/></clipPath></defs><g xml:id="surface1" id="surface1"><g clip-rule="nonzero" clip-path="url(#clip1)"><path style=" stroke:none;fill-rule:nonzero;fill:rgb(26.669312%,24.308777%,19.999695%);fill-opacity:1;" d="M 176.976562 7.089844 L 47.929688 7.089844 C 36.722656 7.089844 26.53125 11.683594 19.140625 19.082031 C 11.75 26.480469 7.160156 36.6875 7.160156 47.910156 L 7.160156 177.117188 C 7.160156 188.335938 11.75 198.542969 19.140625 205.941406 C 26.53125 213.34375 36.722656 217.9375 47.929688 217.9375 L 176.976562 217.9375 C 188.183594 217.9375 198.375 213.34375 205.765625 205.941406 C 213.15625 198.542969 217.746094 188.335938 217.746094 177.117188 L 217.746094 47.910156 C 217.746094 36.6875 213.15625 26.480469 205.765625 19.082031 C 198.375 11.683594 188.183594 7.089844 176.976562 7.089844 Z M 47.929688 0.0585938 L 176.976562 0.0585938 C 190.121094 0.0585938 202.070312 5.441406 210.726562 14.113281 C 219.386719 22.785156 224.765625 34.746094 224.765625 47.910156 L 224.765625 177.117188 C 224.765625 190.277344 219.386719 202.242188 210.726562 210.910156 C 202.070312 219.582031 190.121094 224.964844 176.976562 224.964844 L 47.929688 224.964844 C 34.785156 224.964844 22.835938 219.582031 14.175781 210.910156 C 5.515625 202.242188 0.140625 190.277344 0.140625 177.117188 L 0.140625 47.910156 C 0.140625 34.746094 5.515625 22.785156 14.175781 14.113281 C 22.835938 5.441406 34.785156 0.0585938 47.929688 0.0585938 "/></g><path style=" stroke:none;fill-rule:nonzero;fill:rgb(26.669312%,24.308777%,19.999695%);fill-opacity:1;" d="M 128.160156 96.785156 C 124.140625 92.761719 118.585938 90.269531 112.453125 90.269531 C 106.320312 90.269531 100.761719 92.761719 96.746094 96.785156 C 92.726562 100.808594 90.238281 106.371094 90.238281 112.511719 C 90.238281 118.652344 92.726562 124.214844 96.746094 128.238281 C 100.761719 132.265625 106.320312 134.753906 112.453125 134.753906 C 118.585938 134.753906 124.140625 132.265625 128.160156 128.238281 C 132.179688 124.214844 134.667969 118.652344 134.667969 112.511719 C 134.667969 106.371094 132.179688 100.808594 128.160156 96.785156 Z M 112.453125 83.242188 C 120.523438 83.242188 127.832031 86.519531 133.121094 91.816406 C 138.414062 97.113281 141.6875 104.429688 141.6875 112.511719 C 141.6875 120.59375 138.414062 127.914062 133.121094 133.207031 C 127.832031 138.503906 120.523438 141.78125 112.453125 141.78125 C 104.378906 141.78125 97.070312 138.503906 91.78125 133.207031 C 86.492188 127.914062 83.21875 120.59375 83.21875 112.511719 C 83.21875 104.429688 86.492188 97.113281 91.78125 91.816406 C 97.070312 86.519531 104.378906 83.242188 112.453125 83.242188 "/><path style=" stroke:none;fill-rule:nonzero;fill:rgb(26.669312%,24.308777%,19.999695%);fill-opacity:1;" d="M 180.683594 145.835938 C 176.664062 141.8125 171.109375 139.324219 164.976562 139.324219 C 158.84375 139.324219 153.285156 141.8125 149.269531 145.835938 C 145.25 149.863281 142.761719 155.421875 142.761719 161.5625 C 142.761719 167.707031 145.25 173.265625 149.269531 177.292969 C 153.285156 181.316406 158.84375 183.804688 164.976562 183.804688 C 171.109375 183.804688 176.664062 181.316406 180.683594 177.292969 C 184.703125 173.265625 187.191406 167.707031 187.191406 161.5625 C 187.191406 155.421875 184.703125 149.863281 180.683594 145.835938 Z M 164.976562 132.292969 C 173.046875 132.292969 180.355469 135.570312 185.644531 140.867188 C 190.9375 146.164062 194.210938 153.480469 194.210938 161.5625 C 194.210938 169.648438 190.9375 176.964844 185.644531 182.261719 C 180.355469 187.554688 173.046875 190.832031 164.976562 190.832031 C 156.90625 190.832031 149.59375 187.554688 144.304688 182.261719 C 139.015625 176.964844 135.742188 169.648438 135.742188 161.5625 C 135.742188 153.480469 139.015625 146.164062 144.304688 140.867188 C 149.59375 135.570312 156.90625 132.292969 164.976562 132.292969 "/><path style=" stroke:none;fill-rule:nonzero;fill:rgb(26.669312%,24.308777%,19.999695%);fill-opacity:1;" d="M 75.636719 47.734375 C 71.617188 43.707031 66.0625 41.21875 59.929688 41.21875 C 53.792969 41.21875 48.238281 43.707031 44.222656 47.734375 C 40.203125 51.757812 37.714844 57.316406 37.714844 63.460938 C 37.714844 69.601562 40.203125 75.164062 44.222656 79.1875 C 48.238281 83.214844 53.792969 85.703125 59.929688 85.703125 C 66.0625 85.703125 71.617188 83.214844 75.636719 79.1875 C 79.65625 75.164062 82.144531 69.601562 82.144531 63.460938 C 82.144531 57.316406 79.65625 51.757812 75.636719 47.734375 Z M 59.929688 34.191406 C 68 34.191406 75.308594 37.464844 80.601562 42.765625 C 85.890625 48.0625 89.164062 55.378906 89.164062 63.460938 C 89.164062 71.542969 85.890625 78.859375 80.601562 84.15625 C 75.308594 89.457031 68 92.730469 59.929688 92.730469 C 51.855469 92.730469 44.546875 89.457031 39.257812 84.15625 C 33.96875 78.859375 30.695312 71.542969 30.695312 63.460938 C 30.695312 55.378906 33.96875 48.0625 39.257812 42.765625 C 44.546875 37.464844 51.855469 34.191406 59.929688 34.191406 "/><path style=" stroke:none;fill-rule:nonzero;fill:rgb(26.669312%,24.308777%,19.999695%);fill-opacity:1;" d="M 79.171875 180.828125 C 83.191406 176.804688 85.675781 171.242188 85.675781 165.101562 C 85.675781 158.960938 83.191406 153.398438 79.171875 149.371094 C 75.148438 145.351562 69.597656 142.859375 63.464844 142.859375 C 57.328125 142.859375 51.773438 145.351562 47.753906 149.371094 C 43.734375 153.398438 41.25 158.960938 41.25 165.101562 C 41.25 171.242188 43.734375 176.804688 47.753906 180.828125 C 51.773438 184.855469 57.328125 187.34375 63.464844 187.34375 C 69.597656 187.34375 75.148438 184.855469 79.171875 180.828125 Z M 92.695312 165.101562 C 92.695312 173.183594 89.421875 180.503906 84.132812 185.796875 C 78.839844 191.09375 71.535156 194.371094 63.464844 194.371094 C 55.390625 194.371094 48.082031 191.09375 42.792969 185.796875 C 37.5 180.503906 34.230469 173.183594 34.230469 165.101562 C 34.230469 157.019531 37.5 149.703125 42.792969 144.402344 C 48.082031 139.109375 55.390625 135.832031 63.464844 135.832031 C 71.535156 135.832031 78.839844 139.109375 84.132812 144.402344 C 89.421875 149.703125 92.695312 157.019531 92.695312 165.101562 "/><path style=" stroke:none;fill-rule:nonzero;fill:rgb(26.669312%,24.308777%,19.999695%);fill-opacity:1;" d="M 177.152344 75.648438 C 181.167969 71.625 183.65625 66.0625 183.65625 59.921875 C 183.65625 53.78125 181.167969 48.21875 177.152344 44.195312 C 173.128906 40.171875 167.578125 37.679688 161.441406 37.679688 C 155.308594 37.679688 149.753906 40.171875 145.734375 44.195312 C 141.714844 48.21875 139.230469 53.78125 139.230469 59.921875 C 139.230469 66.0625 141.714844 71.625 145.734375 75.648438 C 149.753906 79.675781 155.308594 82.164062 161.441406 82.164062 C 167.578125 82.164062 173.128906 79.675781 177.152344 75.648438 Z M 190.675781 59.921875 C 190.675781 68.003906 187.402344 75.324219 182.113281 80.621094 C 176.824219 85.917969 169.515625 89.191406 161.441406 89.191406 C 153.371094 89.191406 146.0625 85.917969 140.773438 80.621094 C 135.480469 75.324219 132.207031 68.003906 132.207031 59.921875 C 132.207031 51.839844 135.480469 44.523438 140.773438 39.226562 C 146.0625 33.929688 153.371094 30.652344 161.441406 30.652344 C 169.515625 30.652344 176.824219 33.929688 182.113281 39.226562 C 187.402344 44.523438 190.675781 51.839844 190.675781 59.921875 "/><path style=" stroke:none;fill-rule:evenodd;fill:rgb(64.309692%,87.838745%,79.219055%);fill-opacity:1;" d="M 82.144531 63.460938 C 82.144531 57.316406 79.65625 51.757812 75.636719 47.734375 C 71.617188 43.707031 66.0625 41.21875 59.929688 41.21875 C 53.792969 41.21875 48.238281 43.707031 44.222656 47.734375 C 40.203125 51.757812 37.714844 57.316406 37.714844 63.460938 C 37.714844 69.601562 40.203125 75.164062 44.222656 79.1875 C 48.238281 83.214844 53.792969 85.703125 59.929688 85.703125 C 66.0625 85.703125 71.617188 83.214844 75.636719 79.1875 C 79.65625 75.164062 82.144531 69.601562 82.144531 63.460938 "/><path style=" stroke:none;fill-rule:evenodd;fill:rgb(98.429871%,87.838745%,39.99939%);fill-opacity:1;" d="M 92.695312 165.101562 C 92.695312 173.183594 89.421875 180.503906 84.132812 185.796875 C 78.839844 191.09375 71.535156 194.371094 63.464844 194.371094 C 55.390625 194.371094 48.082031 191.09375 42.792969 185.796875 C 37.5 180.503906 34.230469 173.183594 34.230469 165.101562 C 34.230469 157.019531 37.5 149.703125 42.792969 144.402344 C 48.082031 139.109375 55.390625 135.832031 63.464844 135.832031 C 71.535156 135.832031 78.839844 139.109375 84.132812 144.402344 C 89.421875 149.703125 92.695312 157.019531 92.695312 165.101562 Z M 164.976562 132.292969 C 173.046875 132.292969 180.355469 135.570312 185.644531 140.867188 C 190.9375 146.164062 194.210938 153.480469 194.210938 161.5625 C 194.210938 169.648438 190.9375 176.964844 185.644531 182.261719 C 180.355469 187.554688 173.046875 190.832031 164.976562 190.832031 C 156.90625 190.832031 149.59375 187.554688 144.304688 182.261719 C 139.015625 176.964844 135.742188 169.648438 135.742188 161.5625 C 135.742188 153.480469 139.015625 146.164062 144.304688 140.867188 C 149.59375 135.570312 156.90625 132.292969 164.976562 132.292969 Z M 112.453125 83.242188 C 104.378906 83.242188 97.070312 86.519531 91.78125 91.816406 C 86.492188 97.113281 83.21875 104.429688 83.21875 112.511719 C 83.21875 120.59375 86.492188 127.914062 91.78125 133.207031 C 97.070312 138.503906 104.378906 141.78125 112.453125 141.78125 C 120.523438 141.78125 127.832031 138.503906 133.121094 133.207031 C 138.414062 127.914062 141.6875 120.59375 141.6875 112.511719 C 141.6875 104.429688 138.414062 97.113281 133.121094 91.816406 C 127.832031 86.519531 120.523438 83.242188 112.453125 83.242188 Z M 176.976562 7.089844 L 47.929688 7.089844 C 36.722656 7.089844 26.53125 11.683594 19.140625 19.082031 C 11.75 26.480469 7.160156 36.6875 7.160156 47.910156 L 7.160156 177.117188 C 7.160156 188.335938 11.75 198.542969 19.140625 205.941406 C 26.53125 213.34375 36.722656 217.9375 47.929688 217.9375 L 176.976562 217.9375 C 188.183594 217.9375 198.375 213.34375 205.765625 205.941406 C 213.15625 198.542969 217.746094 188.335938 217.746094 177.117188 L 217.746094 47.910156 C 217.746094 36.6875 213.15625 26.480469 205.765625 19.082031 C 198.375 11.683594 188.183594 7.089844 176.976562 7.089844 Z M 132.207031 59.921875 C 132.207031 51.839844 135.480469 44.523438 140.773438 39.226562 C 146.0625 33.929688 153.371094 30.652344 161.441406 30.652344 C 169.515625 30.652344 176.824219 33.929688 182.113281 39.226562 C 187.402344 44.523438 190.675781 51.839844 190.675781 59.921875 C 190.675781 68.003906 187.402344 75.324219 182.113281 80.621094 C 176.824219 85.917969 169.515625 89.191406 161.441406 89.191406 C 153.371094 89.191406 146.0625 85.917969 140.773438 80.621094 C 135.480469 75.324219 132.207031 68.003906 132.207031 59.921875 Z M 80.601562 42.765625 C 85.890625 48.0625 89.164062 55.378906 89.164062 63.460938 C 89.164062 71.542969 85.890625 78.859375 80.601562 84.15625 C 75.308594 89.457031 68 92.730469 59.929688 92.730469 C 51.855469 92.730469 44.546875 89.457031 39.257812 84.15625 C 33.96875 78.859375 30.695312 71.542969 30.695312 63.460938 C 30.695312 55.378906 33.96875 48.0625 39.257812 42.765625 C 44.546875 37.464844 51.855469 34.191406 59.929688 34.191406 C 68 34.191406 75.308594 37.464844 80.601562 42.765625 "/><path style=" stroke:none;fill-rule:evenodd;fill:rgb(64.309692%,87.838745%,79.219055%);fill-opacity:1;" d="M 145.734375 44.195312 C 141.714844 48.21875 139.230469 53.78125 139.230469 59.921875 C 139.230469 66.0625 141.714844 71.625 145.734375 75.648438 C 149.753906 79.675781 155.308594 82.164062 161.441406 82.164062 C 167.578125 82.164062 173.128906 79.675781 177.152344 75.648438 C 181.167969 71.625 183.65625 66.0625 183.65625 59.921875 C 183.65625 53.78125 181.167969 48.21875 177.152344 44.195312 C 173.128906 40.171875 167.578125 37.679688 161.441406 37.679688 C 155.308594 37.679688 149.753906 40.171875 145.734375 44.195312 "/><path style=" stroke:none;fill-rule:evenodd;fill:rgb(64.309692%,87.838745%,79.219055%);fill-opacity:1;" d="M 128.160156 96.785156 C 124.140625 92.761719 118.585938 90.269531 112.453125 90.269531 C 106.320312 90.269531 100.761719 92.761719 96.746094 96.785156 C 92.726562 100.808594 90.238281 106.371094 90.238281 112.511719 C 90.238281 118.652344 92.726562 124.214844 96.746094 128.238281 C 100.761719 132.265625 106.320312 134.753906 112.453125 134.753906 C 118.585938 134.753906 124.140625 132.265625 128.160156 128.238281 C 132.179688 124.214844 134.667969 118.652344 134.667969 112.511719 C 134.667969 106.371094 132.179688 100.808594 128.160156 96.785156 "/><path style=" stroke:none;fill-rule:evenodd;fill:rgb(64.309692%,87.838745%,79.219055%);fill-opacity:1;" d="M 85.675781 165.101562 C 85.675781 158.960938 83.191406 153.398438 79.171875 149.371094 C 75.148438 145.351562 69.597656 142.859375 63.464844 142.859375 C 57.328125 142.859375 51.773438 145.351562 47.753906 149.371094 C 43.734375 153.398438 41.25 158.960938 41.25 165.101562 C 41.25 171.242188 43.734375 176.804688 47.753906 180.828125 C 51.773438 184.855469 57.328125 187.34375 63.464844 187.34375 C 69.597656 187.34375 75.148438 184.855469 79.171875 180.828125 C 83.191406 176.804688 85.675781 171.242188 85.675781 165.101562 "/><path style=" stroke:none;fill-rule:evenodd;fill:rgb(64.309692%,87.838745%,79.219055%);fill-opacity:1;" d="M 149.269531 145.835938 C 145.25 149.863281 142.761719 155.421875 142.761719 161.5625 C 142.761719 167.707031 145.25 173.265625 149.269531 177.292969 C 153.285156 181.316406 158.84375 183.804688 164.976562 183.804688 C 171.109375 183.804688 176.664062 181.316406 180.683594 177.292969 C 184.703125 173.265625 187.191406 167.707031 187.191406 161.5625 C 187.191406 155.421875 184.703125 149.863281 180.683594 145.835938 C 176.664062 141.8125 171.109375 139.324219 164.976562 139.324219 C 158.84375 139.324219 153.285156 141.8125 149.269531 145.835938 "/><path style=" stroke:none;fill-rule:evenodd;fill:rgb(43.919373%,78.42865%,64.709473%);fill-opacity:1;" d="M 82.144531 63.460938 C 82.144531 57.316406 79.65625 51.757812 75.636719 47.734375 C 71.6875 43.78125 66.253906 41.304688 60.25 41.222656 C 60.824219 41.714844 61.378906 42.226562 61.914062 42.765625 C 67.203125 48.0625 70.476562 55.378906 70.476562 63.460938 C 70.476562 71.542969 67.203125 78.859375 61.914062 84.15625 C 61.378906 84.695312 60.824219 85.207031 60.25 85.699219 C 66.253906 85.617188 71.6875 83.140625 75.636719 79.1875 C 79.65625 75.164062 82.144531 69.601562 82.144531 63.460938 "/><path style=" stroke:none;fill-rule:evenodd;fill:rgb(43.919373%,78.42865%,64.709473%);fill-opacity:1;" d="M 134.667969 112.511719 C 134.667969 106.371094 132.179688 100.808594 128.160156 96.785156 C 124.210938 92.828125 118.777344 90.359375 112.773438 90.273438 C 113.347656 90.765625 113.902344 91.28125 114.4375 91.816406 C 119.726562 97.113281 123 104.429688 123 112.511719 C 123 120.59375 119.726562 127.914062 114.4375 133.207031 C 113.902344 133.742188 113.347656 134.257812 112.773438 134.753906 C 118.777344 134.667969 124.210938 132.195312 128.160156 128.238281 C 132.179688 124.214844 134.667969 118.652344 134.667969 112.511719 "/><path style=" stroke:none;fill-rule:evenodd;fill:rgb(43.919373%,78.42865%,64.709473%);fill-opacity:1;" d="M 183.65625 59.921875 C 183.65625 53.78125 181.167969 48.21875 177.152344 44.195312 C 173.199219 40.242188 167.769531 37.769531 161.761719 37.683594 C 162.335938 38.175781 162.894531 38.691406 163.425781 39.226562 C 168.71875 44.523438 171.992188 51.839844 171.992188 59.921875 C 171.992188 68.003906 168.71875 75.324219 163.425781 80.621094 C 162.894531 81.15625 162.335938 81.667969 161.761719 82.164062 C 167.769531 82.078125 173.199219 79.605469 177.152344 75.648438 C 181.167969 71.625 183.65625 66.0625 183.65625 59.921875 "/><path style=" stroke:none;fill-rule:evenodd;fill:rgb(43.919373%,78.42865%,64.709473%);fill-opacity:1;" d="M 187.191406 161.5625 C 187.191406 155.421875 184.703125 149.863281 180.683594 145.835938 C 176.734375 141.882812 171.300781 139.410156 165.296875 139.324219 C 165.871094 139.816406 166.425781 140.332031 166.960938 140.867188 C 172.25 146.164062 175.523438 153.480469 175.523438 161.5625 C 175.523438 169.648438 172.25 176.964844 166.960938 182.261719 C 166.425781 182.792969 165.871094 183.308594 165.296875 183.800781 C 171.300781 183.71875 176.734375 181.246094 180.683594 177.292969 C 184.703125 173.265625 187.191406 167.707031 187.191406 161.5625 "/><path style=" stroke:none;fill-rule:evenodd;fill:rgb(43.919373%,78.42865%,64.709473%);fill-opacity:1;" d="M 85.675781 165.101562 C 85.675781 158.960938 83.191406 153.398438 79.171875 149.371094 C 75.222656 145.417969 69.789062 142.949219 63.78125 142.863281 C 64.359375 143.355469 64.914062 143.871094 65.445312 144.402344 C 70.738281 149.703125 74.011719 157.019531 74.011719 165.101562 C 74.011719 173.183594 70.738281 180.503906 65.445312 185.796875 C 64.914062 186.332031 64.359375 186.847656 63.78125 187.339844 C 69.789062 187.257812 75.222656 184.78125 79.171875 180.828125 C 83.191406 176.804688 85.675781 171.242188 85.675781 165.101562 "/><path style=" stroke:none;fill-rule:evenodd;fill:rgb(94.898987%,65.489197%,33.729553%);fill-opacity:1;" d="M 217.746094 177.117188 L 217.746094 47.910156 C 217.746094 36.6875 213.15625 26.480469 205.765625 19.082031 C 199.992188 13.300781 192.503906 9.234375 184.164062 7.730469 C 187.011719 9.574219 189.652344 11.71875 192.042969 14.113281 C 200.703125 22.785156 206.078125 34.746094 206.078125 47.910156 L 206.078125 177.117188 C 206.078125 190.277344 200.703125 202.242188 192.042969 210.910156 C 189.652344 213.304688 187.011719 215.445312 184.164062 217.296875 C 192.503906 215.792969 199.992188 211.722656 205.765625 205.941406 C 213.15625 198.542969 217.746094 188.335938 217.746094 177.117188 "/></g></svg>