<?xml version="1.0" encoding="UTF-8"?><svg xmlns="http://www.w3.org/2000/svg" xmlns:xlink="http://www.w3.org/1999/xlink" width="224.87999pt" zoomAndPan="magnify" viewBox="0 0 224.87999 225" height="225pt" preserveAspectRatio="xMidYMid meet" version="1.2"><defs><clipPath xml:id="clip1" id="clip1"><path d="M 0 0.0585938 L 224.761719 0.0585938 L 224.761719 224.9375 L 0 224.9375 Z M 0 0.0585938 "/></clipPath></defs><g xml:id="surface1" id="surface1"><g clip-rule="nonzero" clip-path="url(#clip1)"><path style=" stroke:none;fill-rule:nonzero;fill:rgb(26.669312%,24.308777%,19.999695%);fill-opacity:1;" d="M 176.976562 7.089844 L 47.929688 7.089844 C 36.722656 7.089844 26.53125 11.683594 19.140625 19.082031 C 11.75 26.480469 7.160156 36.6875 7.160156 47.910156 L 7.160156 177.117188 C 7.160156 188.335938 11.75 198.542969 19.140625 205.941406 C 26.53125 213.34375 36.722656 217.9375 47.929688 217.9375 L 176.976562 217.9375 C 188.183594 217.9375 198.375 213.34375 205.765625 205.941406 C 213.15625 198.542969 217.746094 188.335938 217.746094 177.117188 L 217.746094 47.910156 C 217.746094 36.6875 213.15625 26.480469 205.765625 19.082031 C 198.375 11.683594 188.183594 7.089844 176.976562 7.089844 Z M 47.929688 0.0585938 L 176.976562 0.0585938 C 190.121094 0.0585938 202.070312 5.441406 210.726562 14.113281 C 219.386719 22.785156 224.765625 34.746094 224.765625 47.910156 L 224.765625 177.117188 C 224.765625 190.277344 219.386719 202.242188 210.726562 210.910156 C 202.070312 219.582031 190.121094 224.964844 176.976562 224.964844 L 47.929688 224.964844 C 34.785156 224.964844 22.835938 219.582031 14.175781 210.910156 C 5.515625 202.242188 0.140625 190.277344 0.140625 177.117188 L 0.140625 47.910156 C 0.140625 34.746094 5.515625 22.785156 14.175781 14.113281 C 22.835938 5.441406 34.785156 0.0585938 47.929688 0.0585938 "/></g><path style=" stroke:none;fill-rule:nonzero;fill:rgb(26.669312%,24.308777%,19.999695%);fill-opacity:1;" d="M 169.996094 96.785156 C 165.976562 92.761719 160.421875 90.269531 154.289062 90.269531 C 148.152344 90.269531 142.601562 92.761719 138.578125 96.785156 C 134.558594 100.808594 132.074219 106.371094 132.074219 112.511719 C 132.074219 118.652344 134.558594 124.214844 138.578125 128.238281 C 142.601562 132.265625 148.152344 134.753906 154.289062 134.753906 C 160.421875 134.753906 165.976562 132.265625 169.996094 128.238281 C 174.015625 124.214844 176.5 118.652344 176.5 112.511719 C 176.5 106.371094 174.015625 100.808594 169.996094 96.785156 Z M 154.289062 83.242188 C 162.359375 83.242188 169.667969 86.519531 174.957031 91.816406 C 180.25 97.113281 183.519531 104.429688 183.519531 112.511719 C 183.519531 120.59375 180.25 127.914062 174.957031 133.207031 C 169.667969 138.503906 162.359375 141.78125 154.289062 141.78125 C 146.214844 141.78125 138.910156 138.503906 133.617188 133.207031 C 128.324219 127.914062 125.054688 120.59375 125.054688 112.511719 C 125.054688 104.429688 128.324219 97.113281 133.617188 91.816406 C 138.910156 86.519531 146.214844 83.242188 154.289062 83.242188 "/><path style=" stroke:none;fill-rule:nonzero;fill:rgb(26.669312%,24.308777%,19.999695%);fill-opacity:1;" d="M 86.324219 96.785156 C 82.304688 92.761719 76.75 90.269531 70.617188 90.269531 C 64.480469 90.269531 58.929688 92.761719 54.910156 96.785156 C 50.886719 100.808594 48.402344 106.371094 48.402344 112.511719 C 48.402344 118.652344 50.886719 124.214844 54.910156 128.238281 C 58.929688 132.265625 64.480469 134.753906 70.617188 134.753906 C 76.75 134.753906 82.304688 132.265625 86.324219 128.238281 C 90.34375 124.214844 92.828125 118.652344 92.828125 112.511719 C 92.828125 106.371094 90.34375 100.808594 86.324219 96.785156 Z M 70.617188 83.242188 C 78.6875 83.242188 85.996094 86.519531 91.289062 91.816406 C 96.578125 97.113281 99.847656 104.429688 99.847656 112.511719 C 99.847656 120.59375 96.578125 127.914062 91.289062 133.207031 C 85.996094 138.503906 78.6875 141.78125 70.617188 141.78125 C 62.542969 141.78125 55.234375 138.503906 49.945312 133.207031 C 44.65625 127.914062 41.382812 120.59375 41.382812 112.511719 C 41.382812 104.429688 44.65625 97.113281 49.945312 91.816406 C 55.234375 86.519531 62.542969 83.242188 70.617188 83.242188 "/><path style=" stroke:none;fill-rule:evenodd;fill:rgb(98.429871%,87.838745%,39.99939%);fill-opacity:1;" d="M 176.976562 7.089844 L 47.929688 7.089844 C 36.722656 7.089844 26.53125 11.683594 19.140625 19.082031 C 11.75 26.480469 7.160156 36.6875 7.160156 47.910156 L 7.160156 177.117188 C 7.160156 188.335938 11.75 198.542969 19.140625 205.941406 C 26.53125 213.34375 36.722656 217.9375 47.929688 217.9375 L 176.976562 217.9375 C 188.183594 217.9375 198.375 213.34375 205.765625 205.941406 C 213.15625 198.542969 217.746094 188.335938 217.746094 177.117188 L 217.746094 47.910156 C 217.746094 36.6875 213.15625 26.480469 205.765625 19.082031 C 198.375 11.683594 188.183594 7.089844 176.976562 7.089844 Z M 154.289062 83.242188 C 162.359375 83.242188 169.667969 86.519531 174.957031 91.816406 C 180.25 97.113281 183.519531 104.429688 183.519531 112.511719 C 183.519531 120.59375 180.25 127.914062 174.957031 133.207031 C 169.667969 138.503906 162.359375 141.78125 154.289062 141.78125 C 146.214844 141.78125 138.910156 138.503906 133.617188 133.207031 C 128.324219 127.914062 125.054688 120.59375 125.054688 112.511719 C 125.054688 104.429688 128.324219 97.113281 133.617188 91.816406 C 138.910156 86.519531 146.214844 83.242188 154.289062 83.242188 Z M 70.617188 83.242188 C 78.6875 83.242188 85.996094 86.519531 91.289062 91.816406 C 96.578125 97.113281 99.847656 104.429688 99.847656 112.511719 C 99.847656 120.59375 96.578125 127.914062 91.289062 133.207031 C 85.996094 138.503906 78.6875 141.78125 70.617188 141.78125 C 62.542969 141.78125 55.234375 138.503906 49.945312 133.207031 C 44.65625 127.914062 41.382812 120.59375 41.382812 112.511719 C 41.382812 104.429688 44.65625 97.113281 49.945312 91.816406 C 55.234375 86.519531 62.542969 83.242188 70.617188 83.242188 "/><path style=" stroke:none;fill-rule:evenodd;fill:rgb(64.309692%,87.838745%,79.219055%);fill-opacity:1;" d="M 86.324219 96.785156 C 82.304688 92.761719 76.75 90.269531 70.617188 90.269531 C 64.480469 90.269531 58.929688 92.761719 54.910156 96.785156 C 50.886719 100.808594 48.402344 106.371094 48.402344 112.511719 C 48.402344 118.652344 50.886719 124.214844 54.910156 128.238281 C 58.929688 132.265625 64.480469 134.753906 70.617188 134.753906 C 76.75 134.753906 82.304688 132.265625 86.324219 128.238281 C 90.34375 124.214844 92.828125 118.652344 92.828125 112.511719 C 92.828125 106.371094 90.34375 100.808594 86.324219 96.785156 "/><path style=" stroke:none;fill-rule:evenodd;fill:rgb(64.309692%,87.838745%,79.219055%);fill-opacity:1;" d="M 138.578125 96.785156 C 134.558594 100.808594 132.074219 106.371094 132.074219 112.511719 C 132.074219 118.652344 134.558594 124.214844 138.578125 128.238281 C 142.601562 132.265625 148.152344 134.753906 154.289062 134.753906 C 160.421875 134.753906 165.976562 132.265625 169.996094 128.238281 C 174.015625 124.214844 176.5 118.652344 176.5 112.511719 C 176.5 106.371094 174.015625 100.808594 169.996094 96.785156 C 165.976562 92.761719 160.421875 90.269531 154.289062 90.269531 C 148.152344 90.269531 142.601562 92.761719 138.578125 96.785156 "/><path style=" stroke:none;fill-rule:evenodd;fill:rgb(94.509888%,72.158813%,40.779114%);fill-opacity:1;" d="M 192.578125 14.113281 C 201.234375 22.785156 206.609375 34.746094 206.609375 47.910156 L 206.609375 177.117188 C 206.609375 190.277344 201.234375 202.242188 192.578125 210.910156 C 190.246094 213.246094 187.679688 215.335938 184.917969 217.152344 C 192.957031 215.542969 200.164062 211.550781 205.765625 205.941406 C 213.15625 198.542969 217.746094 188.335938 217.746094 177.117188 L 217.746094 47.910156 C 217.746094 36.6875 213.15625 26.480469 205.765625 19.082031 C 200.164062 13.476562 192.957031 9.476562 184.917969 7.871094 C 187.679688 9.6875 190.246094 11.78125 192.578125 14.113281 "/><path style=" stroke:none;fill-rule:evenodd;fill:rgb(43.919373%,78.42865%,64.709473%);fill-opacity:1;" d="M 86.324219 128.238281 C 90.34375 124.214844 92.828125 118.652344 92.828125 112.511719 C 92.828125 106.371094 90.34375 100.808594 86.324219 96.785156 C 82.304688 92.761719 76.75 90.269531 70.617188 90.269531 C 70.121094 90.269531 69.632812 90.285156 69.148438 90.316406 C 69.703125 90.796875 70.242188 91.296875 70.757812 91.816406 C 76.050781 97.113281 79.320312 104.429688 79.320312 112.511719 C 79.320312 120.59375 76.050781 127.914062 70.757812 133.207031 C 70.242188 133.726562 69.703125 134.226562 69.148438 134.703125 C 69.632812 134.738281 70.121094 134.753906 70.617188 134.753906 C 76.75 134.753906 82.304688 132.265625 86.324219 128.238281 "/><path style=" stroke:none;fill-rule:evenodd;fill:rgb(43.919373%,78.42865%,64.709473%);fill-opacity:1;" d="M 176.5 112.511719 C 176.5 106.371094 174.015625 100.808594 169.996094 96.785156 C 165.976562 92.761719 160.421875 90.269531 154.289062 90.269531 C 153.792969 90.269531 153.304688 90.285156 152.816406 90.316406 C 153.375 90.796875 153.914062 91.296875 154.429688 91.816406 C 159.71875 97.113281 162.992188 104.429688 162.992188 112.511719 C 162.992188 120.59375 159.71875 127.914062 154.429688 133.207031 C 153.914062 133.726562 153.375 134.226562 152.816406 134.703125 C 153.304688 134.738281 153.792969 134.753906 154.289062 134.753906 C 160.421875 134.753906 165.976562 132.265625 169.996094 128.238281 C 174.015625 124.214844 176.5 118.652344 176.5 112.511719 "/></g></svg>