<?xml version="1.0" encoding="UTF-8"?><svg xmlns="http://www.w3.org/2000/svg" xmlns:xlink="http://www.w3.org/1999/xlink" width="224.87999pt" zoomAndPan="magnify" viewBox="0 0 224.87999 225" height="225pt" preserveAspectRatio="xMidYMid meet" version="1.2"><defs><clipPath xml:id="clip1" id="clip1"><path d="M 0 0.0585938 L 224.761719 0.0585938 L 224.761719 224.9375 L 0 224.9375 Z M 0 0.0585938 "/></clipPath></defs><g xml:id="surface1" id="surface1"><g clip-rule="nonzero" clip-path="url(#clip1)"><path style=" stroke:none;fill-rule:nonzero;fill:rgb(26.669312%,24.308777%,19.999695%);fill-opacity:1;" d="M 176.976562 7.089844 L 47.929688 7.089844 C 36.722656 7.089844 26.53125 11.683594 19.140625 19.082031 C 11.75 26.480469 7.160156 36.6875 7.160156 47.910156 L 7.160156 177.117188 C 7.160156 188.335938 11.75 198.542969 19.140625 205.941406 C 26.53125 213.34375 36.722656 217.9375 47.929688 217.9375 L 176.976562 217.9375 C 188.183594 217.9375 198.375 213.34375 205.765625 205.941406 C 213.15625 198.542969 217.746094 188.335938 217.746094 177.117188 L 217.746094 47.910156 C 217.746094 36.6875 213.15625 26.480469 205.765625 19.082031 C 198.375 11.683594 188.183594 7.089844 176.976562 7.089844 Z M 47.929688 0.0585938 L 176.976562 0.0585938 C 190.121094 0.0585938 202.070312 5.441406 210.726562 14.113281 C 219.386719 22.785156 224.765625 34.746094 224.765625 47.910156 L 224.765625 177.117188 C 224.765625 190.277344 219.386719 202.242188 210.726562 210.910156 C 202.070312 219.582031 190.121094 224.964844 176.976562 224.964844 L 47.929688 224.964844 C 34.785156 224.964844 22.835938 219.582031 14.175781 210.910156 C 5.515625 202.242188 0.140625 190.277344 0.140625 177.117188 L 0.140625 47.910156 C 0.140625 34.746094 5.515625 22.785156 14.175781 14.113281 C 22.835938 5.441406 34.785156 0.0585938 47.929688 0.0585938 "/></g><path style=" stroke:none;fill-rule:nonzero;fill:rgb(26.669312%,24.308777%,19.999695%);fill-opacity:1;" d="M 128.160156 96.785156 C 124.140625 92.761719 118.585938 90.269531 112.453125 90.269531 C 106.320312 90.269531 100.761719 92.761719 96.746094 96.785156 C 92.726562 100.808594 90.238281 106.371094 90.238281 112.511719 C 90.238281 118.652344 92.726562 124.214844 96.746094 128.238281 C 100.761719 132.265625 106.320312 134.753906 112.453125 134.753906 C 118.585938 134.753906 124.140625 132.265625 128.160156 128.238281 C 132.179688 124.214844 134.667969 118.652344 134.667969 112.511719 C 134.667969 106.371094 132.179688 100.808594 128.160156 96.785156 Z M 112.453125 83.242188 C 120.523438 83.242188 127.832031 86.519531 133.121094 91.816406 C 138.414062 97.113281 141.6875 104.429688 141.6875 112.511719 C 141.6875 120.59375 138.414062 127.914062 133.121094 133.207031 C 127.832031 138.503906 120.523438 141.78125 112.453125 141.78125 C 104.378906 141.78125 97.070312 138.503906 91.78125 133.207031 C 86.492188 127.914062 83.21875 120.59375 83.21875 112.511719 C 83.21875 104.429688 86.492188 97.113281 91.78125 91.816406 C 97.070312 86.519531 104.378906 83.242188 112.453125 83.242188 "/><path style=" stroke:none;fill-rule:nonzero;fill:rgb(26.669312%,24.308777%,19.999695%);fill-opacity:1;" d="M 180.683594 145.835938 C 176.664062 141.8125 171.109375 139.324219 164.976562 139.324219 C 158.84375 139.324219 153.285156 141.8125 149.269531 145.835938 C 145.25 149.863281 142.761719 155.421875 142.761719 161.5625 C 142.761719 167.707031 145.25 173.265625 149.269531 177.292969 C 153.285156 181.316406 158.84375 183.804688 164.976562 183.804688 C 171.109375 183.804688 176.664062 181.316406 180.683594 177.292969 C 184.703125 173.265625 187.191406 167.707031 187.191406 161.5625 C 187.191406 155.421875 184.703125 149.863281 180.683594 145.835938 Z M 164.976562 132.292969 C 173.046875 132.292969 180.355469 135.570312 185.644531 140.867188 C 190.9375 146.164062 194.210938 153.480469 194.210938 161.5625 C 194.210938 169.648438 190.9375 176.964844 185.644531 182.261719 C 180.355469 187.554688 173.046875 190.832031 164.976562 190.832031 C 156.90625 190.832031 149.59375 187.554688 144.304688 182.261719 C 139.015625 176.964844 135.742188 169.648438 135.742188 161.5625 C 135.742188 153.480469 139.015625 146.164062 144.304688 140.867188 C 149.59375 135.570312 156.90625 132.292969 164.976562 132.292969 "/><path style=" stroke:none;fill-rule:nonzero;fill:rgb(26.669312%,24.308777%,19.999695%);fill-opacity:1;" d="M 75.636719 47.734375 C 71.617188 43.707031 66.0625 41.21875 59.929688 41.21875 C 53.792969 41.21875 48.238281 43.707031 44.222656 47.734375 C 40.203125 51.757812 37.714844 57.316406 37.714844 63.460938 C 37.714844 69.601562 40.203125 75.164062 44.222656 79.1875 C 48.238281 83.214844 53.792969 85.703125 59.929688 85.703125 C 66.0625 85.703125 71.617188 83.214844 75.636719 79.1875 C 79.65625 75.164062 82.144531 69.601562 82.144531 63.460938 C 82.144531 57.316406 79.65625 51.757812 75.636719 47.734375 Z M 59.929688 34.191406 C 68 34.191406 75.308594 37.464844 80.601562 42.765625 C 85.890625 48.0625 89.164062 55.378906 89.164062 63.460938 C 89.164062 71.542969 85.890625 78.859375 80.601562 84.15625 C 75.308594 89.457031 68 92.730469 59.929688 92.730469 C 51.855469 92.730469 44.546875 89.457031 39.257812 84.15625 C 33.96875 78.859375 30.695312 71.542969 30.695312 63.460938 C 30.695312 55.378906 33.96875 48.0625 39.257812 42.765625 C 44.546875 37.464844 51.855469 34.191406 59.929688 34.191406 "/><path style=" stroke:none;fill-rule:evenodd;fill:rgb(98.429871%,87.838745%,39.99939%);fill-opacity:1;" d="M 164.976562 132.292969 C 173.046875 132.292969 180.355469 135.570312 185.644531 140.867188 C 190.9375 146.164062 194.210938 153.480469 194.210938 161.5625 C 194.210938 169.648438 190.9375 176.964844 185.644531 182.261719 C 180.355469 187.554688 173.046875 190.832031 164.976562 190.832031 C 156.90625 190.832031 149.59375 187.554688 144.304688 182.261719 C 139.015625 176.964844 135.742188 169.648438 135.742188 161.5625 C 135.742188 153.480469 139.015625 146.164062 144.304688 140.867188 C 149.59375 135.570312 156.90625 132.292969 164.976562 132.292969 Z M 112.453125 83.242188 C 104.378906 83.242188 97.070312 86.519531 91.78125 91.816406 C 86.492188 97.113281 83.21875 104.429688 83.21875 112.511719 C 83.21875 120.59375 86.492188 127.914062 91.78125 133.207031 C 97.070312 138.503906 104.378906 141.78125 112.453125 141.78125 C 120.523438 141.78125 127.832031 138.503906 133.121094 133.207031 C 138.414062 127.914062 141.6875 120.59375 141.6875 112.511719 C 141.6875 104.429688 138.414062 97.113281 133.121094 91.816406 C 127.832031 86.519531 120.523438 83.242188 112.453125 83.242188 Z M 176.976562 7.089844 L 47.929688 7.089844 C 36.722656 7.089844 26.53125 11.683594 19.140625 19.082031 C 11.75 26.480469 7.160156 36.6875 7.160156 47.910156 L 7.160156 177.117188 C 7.160156 188.335938 11.75 198.542969 19.140625 205.941406 C 26.53125 213.34375 36.722656 217.9375 47.929688 217.9375 L 176.976562 217.9375 C 188.183594 217.9375 198.375 213.34375 205.765625 205.941406 C 213.15625 198.542969 217.746094 188.335938 217.746094 177.117188 L 217.746094 47.910156 C 217.746094 36.6875 213.15625 26.480469 205.765625 19.082031 C 198.375 11.683594 188.183594 7.089844 176.976562 7.089844 Z M 80.601562 42.765625 C 85.890625 48.0625 89.164062 55.378906 89.164062 63.460938 C 89.164062 71.542969 85.890625 78.859375 80.601562 84.15625 C 75.308594 89.457031 68 92.730469 59.929688 92.730469 C 51.855469 92.730469 44.546875 89.457031 39.257812 84.15625 C 33.96875 78.859375 30.695312 71.542969 30.695312 63.460938 C 30.695312 55.378906 33.96875 48.0625 39.257812 42.765625 C 44.546875 37.464844 51.855469 34.191406 59.929688 34.191406 C 68 34.191406 75.308594 37.464844 80.601562 42.765625 "/><path style=" stroke:none;fill-rule:evenodd;fill:rgb(64.309692%,87.838745%,79.219055%);fill-opacity:1;" d="M 82.144531 63.460938 C 82.144531 57.316406 79.65625 51.757812 75.636719 47.734375 C 71.617188 43.707031 66.0625 41.21875 59.929688 41.21875 C 53.792969 41.21875 48.238281 43.707031 44.222656 47.734375 C 40.203125 51.757812 37.714844 57.316406 37.714844 63.460938 C 37.714844 69.601562 40.203125 75.164062 44.222656 79.1875 C 48.238281 83.214844 53.792969 85.703125 59.929688 85.703125 C 66.0625 85.703125 71.617188 83.214844 75.636719 79.1875 C 79.65625 75.164062 82.144531 69.601562 82.144531 63.460938 "/><path style=" stroke:none;fill-rule:evenodd;fill:rgb(64.309692%,87.838745%,79.219055%);fill-opacity:1;" d="M 112.453125 90.269531 C 106.320312 90.269531 100.761719 92.761719 96.746094 96.785156 C 92.726562 100.808594 90.238281 106.371094 90.238281 112.511719 C 90.238281 118.652344 92.726562 124.214844 96.746094 128.238281 C 100.761719 132.265625 106.320312 134.753906 112.453125 134.753906 C 118.585938 134.753906 124.140625 132.265625 128.160156 128.238281 C 132.179688 124.214844 134.667969 118.652344 134.667969 112.511719 C 134.667969 106.371094 132.179688 100.808594 128.160156 96.785156 C 124.140625 92.761719 118.585938 90.269531 112.453125 90.269531 "/><path style=" stroke:none;fill-rule:evenodd;fill:rgb(64.309692%,87.838745%,79.219055%);fill-opacity:1;" d="M 164.976562 139.324219 C 158.84375 139.324219 153.285156 141.8125 149.269531 145.835938 C 145.25 149.863281 142.761719 155.421875 142.761719 161.5625 C 142.761719 167.707031 145.25 173.265625 149.269531 177.292969 C 153.285156 181.316406 158.84375 183.804688 164.976562 183.804688 C 171.109375 183.804688 176.664062 181.316406 180.683594 177.292969 C 184.703125 173.265625 187.191406 167.707031 187.191406 161.5625 C 187.191406 155.421875 184.703125 149.863281 180.683594 145.835938 C 176.664062 141.8125 171.109375 139.324219 164.976562 139.324219 "/><path style=" stroke:none;fill-rule:evenodd;fill:rgb(94.898987%,65.489197%,33.729553%);fill-opacity:1;" d="M 217.746094 47.910156 C 217.746094 36.6875 213.15625 26.480469 205.765625 19.082031 C 199.878906 13.1875 192.210938 9.074219 183.671875 7.644531 C 186.570312 9.511719 189.257812 11.683594 191.683594 14.113281 C 200.34375 22.785156 205.71875 34.746094 205.71875 47.910156 L 205.71875 177.117188 C 205.71875 190.277344 200.34375 202.242188 191.683594 210.910156 C 189.257812 213.34375 186.570312 215.511719 183.671875 217.382812 C 192.210938 215.953125 199.878906 211.835938 205.765625 205.941406 C 213.15625 198.542969 217.746094 188.335938 217.746094 177.117188 L 217.746094 47.910156 "/><path style=" stroke:none;fill-rule:evenodd;fill:rgb(43.919373%,78.42865%,64.709473%);fill-opacity:1;" d="M 82.144531 63.460938 C 82.144531 57.316406 79.65625 51.757812 75.636719 47.734375 C 71.617188 43.707031 66.0625 41.21875 59.929688 41.21875 C 59.914062 41.21875 59.898438 41.21875 59.886719 41.21875 C 60.460938 41.714844 61.019531 42.226562 61.554688 42.765625 C 66.84375 48.0625 70.117188 55.378906 70.117188 63.460938 C 70.117188 71.542969 66.84375 78.859375 61.554688 84.15625 C 61.019531 84.695312 60.460938 85.207031 59.886719 85.703125 C 59.898438 85.703125 59.914062 85.703125 59.929688 85.703125 C 66.0625 85.703125 71.617188 83.214844 75.636719 79.1875 C 79.65625 75.164062 82.144531 69.601562 82.144531 63.460938 "/><path style=" stroke:none;fill-rule:evenodd;fill:rgb(43.919373%,78.42865%,64.709473%);fill-opacity:1;" d="M 134.667969 112.511719 C 134.667969 106.371094 132.179688 100.808594 128.160156 96.785156 C 124.140625 92.761719 118.585938 90.269531 112.453125 90.269531 C 112.4375 90.269531 112.421875 90.269531 112.410156 90.269531 C 112.984375 90.761719 113.542969 91.28125 114.078125 91.816406 C 119.371094 97.113281 122.640625 104.429688 122.640625 112.511719 C 122.640625 120.59375 119.371094 127.914062 114.078125 133.207031 C 113.542969 133.742188 112.984375 134.261719 112.410156 134.753906 C 112.421875 134.753906 112.4375 134.753906 112.453125 134.753906 C 118.585938 134.753906 124.140625 132.265625 128.160156 128.238281 C 132.179688 124.214844 134.667969 118.652344 134.667969 112.511719 "/><path style=" stroke:none;fill-rule:evenodd;fill:rgb(43.919373%,78.42865%,64.709473%);fill-opacity:1;" d="M 187.191406 161.5625 C 187.191406 155.421875 184.703125 149.863281 180.683594 145.835938 C 176.664062 141.8125 171.109375 139.324219 164.976562 139.324219 C 164.960938 139.324219 164.949219 139.324219 164.933594 139.324219 C 165.507812 139.816406 166.066406 140.332031 166.601562 140.867188 C 171.890625 146.164062 175.164062 153.480469 175.164062 161.5625 C 175.164062 169.648438 171.890625 176.964844 166.601562 182.261719 C 166.066406 182.796875 165.507812 183.3125 164.933594 183.804688 C 164.949219 183.804688 164.960938 183.804688 164.976562 183.804688 C 171.109375 183.804688 176.664062 181.316406 180.683594 177.292969 C 184.703125 173.265625 187.191406 167.707031 187.191406 161.5625 "/></g></svg>