<?xml version="1.0" encoding="UTF-8"?><svg xmlns="http://www.w3.org/2000/svg" xmlns:xlink="http://www.w3.org/1999/xlink" width="224.87999pt" zoomAndPan="magnify" viewBox="0 0 224.87999 225" height="225pt" preserveAspectRatio="xMidYMid meet" version="1.2"><defs><clipPath xml:id="clip1" id="clip1"><path d="M 0 0.0585938 L 224.761719 0.0585938 L 224.761719 224.9375 L 0 224.9375 Z M 0 0.0585938 "/></clipPath></defs><g xml:id="surface1" id="surface1"><g clip-rule="nonzero" clip-path="url(#clip1)"><path style=" stroke:none;fill-rule:nonzero;fill:rgb(26.669312%,24.308777%,19.999695%);fill-opacity:1;" d="M 176.976562 7.089844 L 47.929688 7.089844 C 36.722656 7.089844 26.53125 11.683594 19.140625 19.082031 C 11.75 26.480469 7.160156 36.6875 7.160156 47.910156 L 7.160156 177.117188 C 7.160156 188.335938 11.75 198.542969 19.140625 205.941406 C 26.53125 213.34375 36.722656 217.9375 47.929688 217.9375 L 176.976562 217.9375 C 188.183594 217.9375 198.375 213.34375 205.765625 205.941406 C 213.15625 198.542969 217.746094 188.335938 217.746094 177.117188 L 217.746094 47.910156 C 217.746094 36.6875 213.15625 26.480469 205.765625 19.082031 C 198.375 11.683594 188.183594 7.089844 176.976562 7.089844 Z M 47.929688 0.0585938 L 176.976562 0.0585938 C 190.121094 0.0585938 202.070312 5.441406 210.726562 14.113281 C 219.386719 22.785156 224.765625 34.746094 224.765625 47.910156 L 224.765625 177.117188 C 224.765625 190.277344 219.386719 202.242188 210.726562 210.910156 C 202.070312 219.582031 190.121094 224.964844 176.976562 224.964844 L 47.929688 224.964844 C 34.785156 224.964844 22.835938 219.582031 14.175781 210.910156 C 5.515625 202.242188 0.140625 190.277344 0.140625 177.117188 L 0.140625 47.910156 C 0.140625 34.746094 5.515625 22.785156 14.175781 14.113281 C 22.835938 5.441406 34.785156 0.0585938 47.929688 0.0585938 "/></g><path style=" stroke:none;fill-rule:nonzero;fill:rgb(26.669312%,24.308777%,19.999695%);fill-opacity:1;" d="M 95.96875 112.511719 C 95.96875 108.003906 94.25 103.496094 90.8125 100.054688 C 87.378906 96.617188 82.875 94.894531 78.375 94.894531 C 73.871094 94.894531 69.367188 96.617188 65.933594 100.054688 C 62.5 103.496094 60.78125 108.003906 60.78125 112.511719 C 60.78125 117.019531 62.5 121.53125 65.933594 124.96875 C 69.367188 128.40625 73.871094 130.125 78.375 130.125 C 82.875 130.125 87.378906 128.40625 90.8125 124.96875 C 94.25 121.53125 95.96875 117.019531 95.96875 112.511719 Z M 95.777344 95.085938 C 100.585938 99.898438 102.988281 106.207031 102.988281 112.511719 C 102.988281 118.816406 100.585938 125.125 95.777344 129.9375 C 90.972656 134.75 84.671875 137.15625 78.375 137.15625 C 72.078125 137.15625 65.777344 134.75 60.972656 129.9375 C 56.164062 125.125 53.761719 118.816406 53.761719 112.511719 C 53.761719 106.207031 56.164062 99.898438 60.972656 95.085938 C 65.777344 90.273438 72.078125 87.867188 78.375 87.867188 C 84.671875 87.867188 90.972656 90.273438 95.777344 95.085938 "/><path style=" stroke:none;fill-rule:nonzero;fill:rgb(26.669312%,24.308777%,19.999695%);fill-opacity:1;" d="M 98.015625 171.472656 C 98.015625 166.964844 96.300781 162.457031 92.867188 159.019531 C 89.429688 155.578125 84.929688 153.859375 80.425781 153.859375 C 75.921875 153.859375 71.421875 155.578125 67.984375 159.019531 C 64.546875 162.457031 62.832031 166.964844 62.832031 171.472656 C 62.832031 175.980469 64.546875 180.488281 67.984375 183.929688 C 71.417969 187.367188 75.921875 189.089844 80.425781 189.089844 C 84.929688 189.089844 89.429688 187.367188 92.867188 183.929688 C 96.300781 180.488281 98.015625 175.980469 98.015625 171.472656 Z M 97.828125 154.046875 C 102.632812 158.859375 105.035156 165.167969 105.035156 171.472656 C 105.035156 177.78125 102.632812 184.085938 97.828125 188.898438 C 93.023438 193.710938 86.722656 196.117188 80.425781 196.117188 C 74.125 196.117188 67.824219 193.710938 63.019531 188.898438 C 58.214844 184.085938 55.8125 177.78125 55.8125 171.472656 C 55.8125 165.167969 58.214844 158.859375 63.019531 154.046875 C 67.824219 149.238281 74.125 146.828125 80.425781 146.828125 C 86.722656 146.828125 93.023438 149.238281 97.828125 154.046875 "/><path style=" stroke:none;fill-rule:nonzero;fill:rgb(26.669312%,24.308777%,19.999695%);fill-opacity:1;" d="M 93.917969 53.550781 C 93.917969 49.042969 92.199219 44.535156 88.765625 41.097656 C 85.328125 37.65625 80.828125 35.9375 76.324219 35.9375 C 71.824219 35.9375 67.320312 37.65625 63.882812 41.097656 C 60.449219 44.535156 58.730469 49.042969 58.730469 53.550781 C 58.730469 58.058594 60.449219 62.566406 63.882812 66.007812 C 67.320312 69.445312 71.824219 71.167969 76.324219 71.167969 C 80.828125 71.167969 85.328125 69.445312 88.765625 66.007812 C 92.199219 62.566406 93.917969 58.058594 93.917969 53.550781 Z M 93.726562 36.125 C 98.53125 40.9375 100.9375 47.246094 100.9375 53.550781 C 100.9375 59.859375 98.535156 66.164062 93.726562 70.976562 C 88.921875 75.789062 82.625 78.195312 76.324219 78.195312 C 70.027344 78.195312 63.726562 75.789062 58.921875 70.976562 C 54.117188 66.164062 51.710938 59.859375 51.710938 53.550781 C 51.710938 47.246094 54.117188 40.9375 58.921875 36.125 C 63.726562 31.316406 70.027344 28.910156 76.324219 28.910156 C 82.625 28.910156 88.921875 31.316406 93.726562 36.125 "/><path style=" stroke:none;fill-rule:nonzero;fill:rgb(26.669312%,24.308777%,19.999695%);fill-opacity:1;" d="M 164.125 112.511719 C 164.125 108.003906 162.40625 103.496094 158.972656 100.054688 C 155.535156 96.617188 151.03125 94.894531 146.53125 94.894531 C 142.027344 94.894531 137.523438 96.617188 134.089844 100.054688 C 130.652344 103.496094 128.9375 108.003906 128.9375 112.511719 C 128.9375 117.019531 130.652344 121.53125 134.089844 124.96875 C 137.523438 128.40625 142.027344 130.125 146.53125 130.125 C 151.03125 130.125 155.535156 128.40625 158.972656 124.96875 C 162.40625 121.53125 164.125 117.019531 164.125 112.511719 Z M 163.933594 95.085938 C 168.738281 99.898438 171.144531 106.207031 171.144531 112.511719 C 171.144531 118.816406 168.738281 125.125 163.933594 129.9375 C 159.128906 134.75 152.828125 137.15625 146.53125 137.15625 C 140.230469 137.15625 133.933594 134.75 129.125 129.9375 C 124.320312 125.125 121.917969 118.816406 121.917969 112.511719 C 121.917969 106.207031 124.320312 99.898438 129.125 95.085938 C 133.933594 90.273438 140.230469 87.867188 146.53125 87.867188 C 152.828125 87.867188 159.128906 90.273438 163.933594 95.085938 "/><path style=" stroke:none;fill-rule:nonzero;fill:rgb(26.669312%,24.308777%,19.999695%);fill-opacity:1;" d="M 166.171875 171.472656 C 166.171875 166.964844 164.453125 162.457031 161.019531 159.019531 C 157.585938 155.578125 153.082031 153.859375 148.578125 153.859375 C 144.078125 153.859375 139.574219 155.578125 136.140625 159.019531 C 132.707031 162.457031 130.988281 166.964844 130.988281 171.472656 C 130.988281 175.980469 132.703125 180.488281 136.140625 183.929688 C 139.574219 187.367188 144.078125 189.089844 148.578125 189.089844 C 153.082031 189.089844 157.585938 187.367188 161.019531 183.929688 C 164.453125 180.488281 166.171875 175.980469 166.171875 171.472656 Z M 165.984375 154.046875 C 170.789062 158.859375 173.191406 165.167969 173.191406 171.472656 C 173.191406 177.78125 170.789062 184.085938 165.984375 188.898438 C 161.175781 193.710938 154.875 196.117188 148.578125 196.117188 C 142.28125 196.117188 135.984375 193.710938 131.175781 188.898438 C 126.371094 184.085938 123.96875 177.78125 123.96875 171.472656 C 123.96875 165.167969 126.371094 158.859375 131.175781 154.046875 C 135.984375 149.238281 142.28125 146.828125 148.578125 146.828125 C 154.875 146.828125 161.175781 149.238281 165.984375 154.046875 "/><path style=" stroke:none;fill-rule:nonzero;fill:rgb(26.669312%,24.308777%,19.999695%);fill-opacity:1;" d="M 162.070312 53.550781 C 162.070312 49.042969 160.355469 44.535156 156.921875 41.097656 C 153.488281 37.65625 148.984375 35.9375 144.480469 35.9375 C 139.976562 35.9375 135.476562 37.65625 132.039062 41.097656 C 128.605469 44.535156 126.886719 49.042969 126.886719 53.550781 C 126.886719 58.058594 128.605469 62.566406 132.039062 66.007812 C 135.472656 69.445312 139.976562 71.167969 144.480469 71.167969 C 148.984375 71.167969 153.484375 69.445312 156.921875 66.007812 C 160.355469 62.566406 162.070312 58.058594 162.070312 53.550781 Z M 161.882812 36.125 C 166.691406 40.9375 169.09375 47.246094 169.09375 53.550781 C 169.09375 59.859375 166.691406 66.164062 161.882812 70.976562 C 157.078125 75.789062 150.777344 78.195312 144.480469 78.195312 C 138.183594 78.195312 131.882812 75.789062 127.078125 70.976562 C 122.269531 66.164062 119.867188 59.859375 119.867188 53.550781 C 119.867188 47.246094 122.269531 40.9375 127.078125 36.125 C 131.882812 31.316406 138.183594 28.910156 144.480469 28.910156 C 150.777344 28.910156 157.078125 31.316406 161.882812 36.125 "/><path style=" stroke:none;fill-rule:evenodd;fill:rgb(64.309692%,87.838745%,79.219055%);fill-opacity:1;" d="M 88.765625 66.007812 C 92.199219 62.566406 93.917969 58.058594 93.917969 53.550781 C 93.917969 49.042969 92.199219 44.535156 88.765625 41.097656 C 85.328125 37.65625 80.828125 35.9375 76.324219 35.9375 C 71.824219 35.9375 67.320312 37.65625 63.882812 41.097656 C 60.449219 44.535156 58.730469 49.042969 58.730469 53.550781 C 58.730469 58.058594 60.449219 62.566406 63.882812 66.007812 C 67.320312 69.445312 71.824219 71.167969 76.324219 71.167969 C 80.828125 71.167969 85.328125 69.445312 88.765625 66.007812 "/><path style=" stroke:none;fill-rule:evenodd;fill:rgb(64.309692%,87.838745%,79.219055%);fill-opacity:1;" d="M 126.886719 53.550781 C 126.886719 58.058594 128.605469 62.566406 132.039062 66.007812 C 135.472656 69.445312 139.976562 71.167969 144.480469 71.167969 C 148.984375 71.167969 153.484375 69.445312 156.921875 66.007812 C 160.355469 62.566406 162.070312 58.058594 162.070312 53.550781 C 162.070312 49.042969 160.355469 44.535156 156.921875 41.097656 C 153.488281 37.65625 148.984375 35.9375 144.480469 35.9375 C 139.976562 35.9375 135.476562 37.65625 132.039062 41.097656 C 128.605469 44.535156 126.886719 49.042969 126.886719 53.550781 "/><path style=" stroke:none;fill-rule:evenodd;fill:rgb(64.309692%,87.838745%,79.219055%);fill-opacity:1;" d="M 146.53125 94.894531 C 142.027344 94.894531 137.523438 96.617188 134.089844 100.054688 C 130.652344 103.496094 128.9375 108.003906 128.9375 112.511719 C 128.9375 117.019531 130.652344 121.53125 134.089844 124.96875 C 137.523438 128.40625 142.027344 130.125 146.53125 130.125 C 151.03125 130.125 155.535156 128.40625 158.972656 124.96875 C 162.40625 121.53125 164.125 117.019531 164.125 112.511719 C 164.125 108.003906 162.40625 103.496094 158.972656 100.054688 C 155.535156 96.617188 151.03125 94.894531 146.53125 94.894531 "/><path style=" stroke:none;fill-rule:evenodd;fill:rgb(64.309692%,87.838745%,79.219055%);fill-opacity:1;" d="M 95.96875 112.511719 C 95.96875 108.003906 94.25 103.496094 90.8125 100.054688 C 87.378906 96.617188 82.875 94.894531 78.375 94.894531 C 73.871094 94.894531 69.367188 96.617188 65.933594 100.054688 C 62.5 103.496094 60.78125 108.003906 60.78125 112.511719 C 60.78125 117.019531 62.5 121.53125 65.933594 124.96875 C 69.367188 128.40625 73.871094 130.125 78.375 130.125 C 82.875 130.125 87.378906 128.40625 90.8125 124.96875 C 94.25 121.53125 95.96875 117.019531 95.96875 112.511719 "/><path style=" stroke:none;fill-rule:evenodd;fill:rgb(64.309692%,87.838745%,79.219055%);fill-opacity:1;" d="M 92.867188 159.019531 C 89.429688 155.578125 84.929688 153.859375 80.425781 153.859375 C 75.921875 153.859375 71.421875 155.578125 67.984375 159.019531 C 64.546875 162.457031 62.832031 166.964844 62.832031 171.472656 C 62.832031 175.980469 64.546875 180.488281 67.984375 183.929688 C 71.417969 187.367188 75.921875 189.089844 80.425781 189.089844 C 84.929688 189.089844 89.429688 187.367188 92.867188 183.929688 C 96.300781 180.488281 98.015625 175.980469 98.015625 171.472656 C 98.015625 166.964844 96.300781 162.457031 92.867188 159.019531 "/><path style=" stroke:none;fill-rule:evenodd;fill:rgb(64.309692%,87.838745%,79.219055%);fill-opacity:1;" d="M 136.140625 159.019531 C 132.707031 162.457031 130.988281 166.964844 130.988281 171.472656 C 130.988281 175.980469 132.703125 180.488281 136.140625 183.929688 C 139.574219 187.367188 144.078125 189.089844 148.578125 189.089844 C 153.082031 189.089844 157.585938 187.367188 161.019531 183.929688 C 164.453125 180.488281 166.171875 175.980469 166.171875 171.472656 C 166.171875 166.964844 164.453125 162.457031 161.019531 159.019531 C 157.585938 155.578125 153.082031 153.859375 148.578125 153.859375 C 144.078125 153.859375 139.574219 155.578125 136.140625 159.019531 "/><path style=" stroke:none;fill-rule:evenodd;fill:rgb(98.429871%,87.838745%,39.99939%);fill-opacity:1;" d="M 80.425781 146.828125 C 86.722656 146.828125 93.023438 149.238281 97.828125 154.046875 C 102.632812 158.859375 105.035156 165.167969 105.035156 171.472656 C 105.035156 177.78125 102.632812 184.085938 97.828125 188.898438 C 93.023438 193.710938 86.722656 196.117188 80.425781 196.117188 C 74.125 196.117188 67.824219 193.710938 63.019531 188.898438 C 58.214844 184.085938 55.8125 177.78125 55.8125 171.472656 C 55.8125 165.167969 58.214844 158.859375 63.019531 154.046875 C 67.824219 149.238281 74.125 146.828125 80.425781 146.828125 Z M 95.777344 95.085938 C 100.585938 99.898438 102.988281 106.207031 102.988281 112.511719 C 102.988281 118.816406 100.585938 125.125 95.777344 129.9375 C 90.972656 134.75 84.671875 137.15625 78.375 137.15625 C 72.078125 137.15625 65.777344 134.75 60.972656 129.9375 C 56.164062 125.125 53.761719 118.816406 53.761719 112.511719 C 53.761719 106.207031 56.164062 99.898438 60.972656 95.085938 C 65.777344 90.273438 72.078125 87.867188 78.375 87.867188 C 84.671875 87.867188 90.972656 90.273438 95.777344 95.085938 Z M 93.726562 36.125 C 98.53125 40.9375 100.9375 47.246094 100.9375 53.550781 C 100.9375 59.859375 98.535156 66.164062 93.726562 70.976562 C 88.921875 75.789062 82.625 78.195312 76.324219 78.195312 C 70.027344 78.195312 63.726562 75.789062 58.921875 70.976562 C 54.117188 66.164062 51.710938 59.859375 51.710938 53.550781 C 51.710938 47.246094 54.117188 40.9375 58.921875 36.125 C 63.726562 31.316406 70.027344 28.910156 76.324219 28.910156 C 82.625 28.910156 88.921875 31.316406 93.726562 36.125 Z M 176.976562 7.089844 L 47.929688 7.089844 C 36.722656 7.089844 26.53125 11.683594 19.140625 19.082031 C 11.75 26.480469 7.160156 36.6875 7.160156 47.910156 L 7.160156 177.117188 C 7.160156 188.335938 11.75 198.542969 19.140625 205.941406 C 26.53125 213.34375 36.722656 217.9375 47.929688 217.9375 L 176.976562 217.9375 C 188.183594 217.9375 198.375 213.34375 205.765625 205.941406 C 213.15625 198.542969 217.746094 188.335938 217.746094 177.117188 L 217.746094 47.910156 C 217.746094 36.6875 213.15625 26.480469 205.765625 19.082031 C 198.375 11.683594 188.183594 7.089844 176.976562 7.089844 Z M 161.882812 70.976562 C 157.078125 75.789062 150.777344 78.195312 144.480469 78.195312 C 138.183594 78.195312 131.882812 75.789062 127.078125 70.976562 C 122.269531 66.164062 119.867188 59.859375 119.867188 53.550781 C 119.867188 47.246094 122.269531 40.9375 127.078125 36.125 C 131.882812 31.316406 138.183594 28.910156 144.480469 28.910156 C 150.777344 28.910156 157.078125 31.316406 161.882812 36.125 C 166.691406 40.9375 169.09375 47.246094 169.09375 53.550781 C 169.09375 59.859375 166.691406 66.164062 161.882812 70.976562 Z M 163.933594 95.085938 C 168.738281 99.898438 171.144531 106.207031 171.144531 112.511719 C 171.144531 118.816406 168.738281 125.125 163.933594 129.9375 C 159.128906 134.75 152.828125 137.15625 146.53125 137.15625 C 140.230469 137.15625 133.933594 134.75 129.125 129.9375 C 124.320312 125.125 121.917969 118.816406 121.917969 112.511719 C 121.917969 106.207031 124.320312 99.898438 129.125 95.085938 C 133.933594 90.273438 140.230469 87.867188 146.53125 87.867188 C 152.828125 87.867188 159.128906 90.273438 163.933594 95.085938 Z M 148.578125 146.828125 C 154.875 146.828125 161.175781 149.238281 165.984375 154.046875 C 170.789062 158.859375 173.191406 165.167969 173.191406 171.472656 C 173.191406 177.78125 170.789062 184.085938 165.984375 188.898438 C 161.175781 193.710938 154.875 196.117188 148.578125 196.117188 C 142.28125 196.117188 135.984375 193.710938 131.175781 188.898438 C 126.371094 184.085938 123.96875 177.78125 123.96875 171.472656 C 123.96875 165.167969 126.371094 158.859375 131.175781 154.046875 C 135.984375 149.238281 142.28125 146.828125 148.578125 146.828125 "/><path style=" stroke:none;fill-rule:evenodd;fill:rgb(43.919373%,78.42865%,64.709473%);fill-opacity:1;" d="M 93.917969 53.550781 C 93.917969 49.042969 92.199219 44.535156 88.765625 41.097656 C 85.328125 37.65625 80.828125 35.9375 76.324219 35.9375 C 75.863281 35.9375 75.40625 35.957031 74.945312 35.992188 C 74.992188 36.035156 75.039062 36.082031 75.082031 36.125 C 79.890625 40.9375 82.292969 47.246094 82.292969 53.550781 C 82.292969 59.859375 79.890625 66.164062 75.082031 70.976562 C 75.039062 71.019531 74.992188 71.070312 74.945312 71.113281 C 75.40625 71.148438 75.863281 71.167969 76.324219 71.167969 C 80.828125 71.167969 85.328125 69.445312 88.765625 66.007812 C 92.199219 62.566406 93.917969 58.058594 93.917969 53.550781 "/><path style=" stroke:none;fill-rule:evenodd;fill:rgb(43.919373%,78.42865%,64.709473%);fill-opacity:1;" d="M 162.070312 53.550781 C 162.070312 49.042969 160.355469 44.535156 156.921875 41.097656 C 153.488281 37.65625 148.984375 35.9375 144.480469 35.9375 C 144.019531 35.9375 143.558594 35.957031 143.101562 35.992188 C 143.148438 36.035156 143.191406 36.082031 143.238281 36.125 C 148.042969 40.9375 150.449219 47.246094 150.449219 53.550781 C 150.449219 59.859375 148.042969 66.164062 143.238281 70.976562 C 143.191406 71.019531 143.148438 71.070312 143.101562 71.113281 C 143.558594 71.148438 144.019531 71.167969 144.480469 71.167969 C 148.984375 71.167969 153.484375 69.445312 156.921875 66.007812 C 160.355469 62.566406 162.070312 58.058594 162.070312 53.550781 "/><path style=" stroke:none;fill-rule:evenodd;fill:rgb(43.919373%,78.42865%,64.709473%);fill-opacity:1;" d="M 158.972656 124.96875 C 162.40625 121.53125 164.125 117.019531 164.125 112.511719 C 164.125 108.003906 162.40625 103.496094 158.972656 100.054688 C 155.535156 96.617188 151.03125 94.894531 146.53125 94.894531 C 146.070312 94.894531 145.609375 94.914062 145.152344 94.949219 C 145.195312 94.996094 145.242188 95.042969 145.289062 95.085938 C 150.09375 99.898438 152.496094 106.207031 152.496094 112.511719 C 152.496094 118.816406 150.09375 125.125 145.289062 129.9375 C 145.242188 129.984375 145.195312 130.027344 145.152344 130.074219 C 145.609375 130.109375 146.070312 130.125 146.53125 130.125 C 151.03125 130.125 155.535156 128.40625 158.972656 124.96875 "/><path style=" stroke:none;fill-rule:evenodd;fill:rgb(43.919373%,78.42865%,64.709473%);fill-opacity:1;" d="M 90.8125 124.96875 C 94.25 121.53125 95.96875 117.019531 95.96875 112.511719 C 95.96875 108.003906 94.25 103.496094 90.8125 100.054688 C 87.378906 96.617188 82.875 94.894531 78.375 94.894531 C 77.914062 94.894531 77.453125 94.914062 76.996094 94.949219 C 77.042969 94.996094 77.085938 95.042969 77.132812 95.085938 C 81.9375 99.898438 84.34375 106.207031 84.34375 112.511719 C 84.34375 118.816406 81.9375 125.125 77.132812 129.9375 C 77.085938 129.984375 77.042969 130.027344 76.996094 130.074219 C 77.453125 130.109375 77.914062 130.125 78.375 130.125 C 82.875 130.125 87.378906 128.40625 90.8125 124.96875 "/><path style=" stroke:none;fill-rule:evenodd;fill:rgb(43.919373%,78.42865%,64.709473%);fill-opacity:1;" d="M 98.015625 171.472656 C 98.015625 166.964844 96.300781 162.457031 92.867188 159.019531 C 89.429688 155.578125 84.929688 153.859375 80.425781 153.859375 C 79.964844 153.859375 79.503906 153.875 79.046875 153.914062 C 79.089844 153.957031 79.136719 154 79.183594 154.046875 C 83.988281 158.859375 86.390625 165.167969 86.390625 171.472656 C 86.390625 177.78125 83.988281 184.085938 79.183594 188.898438 C 79.136719 188.941406 79.089844 188.988281 79.046875 189.035156 C 79.503906 189.070312 79.964844 189.089844 80.425781 189.089844 C 84.929688 189.089844 89.429688 187.367188 92.867188 183.929688 C 96.300781 180.488281 98.015625 175.980469 98.015625 171.472656 "/><path style=" stroke:none;fill-rule:evenodd;fill:rgb(43.919373%,78.42865%,64.709473%);fill-opacity:1;" d="M 166.171875 171.472656 C 166.171875 166.964844 164.453125 162.457031 161.019531 159.019531 C 157.585938 155.578125 153.082031 153.859375 148.578125 153.859375 C 148.121094 153.859375 147.660156 153.875 147.199219 153.914062 C 147.246094 153.957031 147.292969 154 147.335938 154.046875 C 152.144531 158.859375 154.546875 165.167969 154.546875 171.472656 C 154.546875 177.78125 152.144531 184.085938 147.335938 188.898438 C 147.292969 188.941406 147.246094 188.988281 147.199219 189.035156 C 147.660156 189.070312 148.121094 189.089844 148.578125 189.089844 C 153.082031 189.089844 157.585938 187.367188 161.019531 183.929688 C 164.453125 180.488281 166.171875 175.980469 166.171875 171.472656 "/><path style=" stroke:none;fill-rule:evenodd;fill:rgb(94.898987%,65.489197%,33.729553%);fill-opacity:1;" d="M 217.746094 177.117188 L 217.746094 47.910156 C 217.746094 36.6875 213.15625 26.480469 205.765625 19.082031 C 200.003906 13.3125 192.542969 9.25 184.21875 7.738281 C 187.0625 9.585938 189.695312 11.722656 192.082031 14.113281 C 200.742188 22.785156 206.117188 34.746094 206.117188 47.910156 L 206.117188 177.117188 C 206.117188 190.277344 200.742188 202.242188 192.082031 210.910156 C 189.695312 213.300781 187.0625 215.4375 184.21875 217.285156 C 192.542969 215.773438 200.003906 211.710938 205.765625 205.941406 C 213.15625 198.542969 217.746094 188.335938 217.746094 177.117188 "/></g></svg>