<?xml version="1.0" encoding="UTF-8"?><svg xmlns="http://www.w3.org/2000/svg" xmlns:xlink="http://www.w3.org/1999/xlink" width="224.87999pt" zoomAndPan="magnify" viewBox="0 0 224.87999 225" height="225pt" preserveAspectRatio="xMidYMid meet" version="1.2"><defs><clipPath xml:id="clip1" id="clip1"><path d="M 0 0.199219 L 224.761719 0.199219 L 224.761719 224.9375 L 0 224.9375 Z M 0 0.199219 "/></clipPath></defs><g xml:id="surface1" id="surface1"><g clip-rule="nonzero" clip-path="url(#clip1)"><path style=" stroke:none;fill-rule:nonzero;fill:rgb(26.669312%,24.308777%,19.999695%);fill-opacity:1;" d="M 176.976562 7.230469 L 47.929688 7.230469 C 36.722656 7.230469 26.53125 11.824219 19.140625 19.222656 C 11.75 26.621094 7.160156 36.828125 7.160156 48.050781 L 7.160156 177.257812 C 7.160156 188.476562 11.75 198.683594 19.140625 206.082031 C 26.53125 213.484375 36.722656 218.078125 47.929688 218.078125 L 176.976562 218.078125 C 188.183594 218.078125 198.375 213.484375 205.765625 206.082031 C 213.15625 198.683594 217.746094 188.476562 217.746094 177.257812 L 217.746094 48.050781 C 217.746094 36.828125 213.15625 26.621094 205.765625 19.222656 C 198.375 11.824219 188.183594 7.230469 176.976562 7.230469 Z M 47.929688 0.199219 L 176.976562 0.199219 C 190.121094 0.199219 202.070312 5.582031 210.726562 14.253906 C 219.386719 22.925781 224.765625 34.886719 224.765625 48.050781 L 224.765625 177.257812 C 224.765625 190.417969 219.386719 202.382812 210.726562 211.050781 C 202.070312 219.722656 190.121094 225.105469 176.976562 225.105469 L 47.929688 225.105469 C 34.785156 225.105469 22.835938 219.722656 14.175781 211.050781 C 5.515625 202.382812 0.140625 190.417969 0.140625 177.257812 L 0.140625 48.050781 C 0.140625 34.886719 5.515625 22.925781 14.175781 14.253906 C 22.835938 5.582031 34.785156 0.199219 47.929688 0.199219 "/></g><path style=" stroke:none;fill-rule:nonzero;fill:rgb(26.669312%,24.308777%,19.999695%);fill-opacity:1;" d="M 128.160156 96.925781 C 124.140625 92.902344 118.585938 90.410156 112.453125 90.410156 C 106.320312 90.410156 100.761719 92.902344 96.746094 96.925781 C 92.726562 100.949219 90.238281 106.511719 90.238281 112.652344 C 90.238281 118.792969 92.726562 124.355469 96.746094 128.378906 C 100.761719 132.40625 106.320312 134.894531 112.453125 134.894531 C 118.585938 134.894531 124.140625 132.40625 128.160156 128.378906 C 132.179688 124.355469 134.667969 118.792969 134.667969 112.652344 C 134.667969 106.511719 132.179688 100.949219 128.160156 96.925781 Z M 112.453125 83.382812 C 120.523438 83.382812 127.832031 86.660156 133.121094 91.957031 C 138.414062 97.253906 141.6875 104.570312 141.6875 112.652344 C 141.6875 120.734375 138.414062 128.054688 133.121094 133.347656 C 127.832031 138.644531 120.523438 141.921875 112.453125 141.921875 C 104.378906 141.921875 97.070312 138.644531 91.78125 133.347656 C 86.492188 128.054688 83.21875 120.734375 83.21875 112.652344 C 83.21875 104.570312 86.492188 97.253906 91.78125 91.957031 C 97.070312 86.660156 104.378906 83.382812 112.453125 83.382812 "/><path style=" stroke:none;fill-rule:evenodd;fill:rgb(98.429871%,87.838745%,39.99939%);fill-opacity:1;" d="M 176.976562 7.230469 L 47.929688 7.230469 C 36.722656 7.230469 26.53125 11.824219 19.140625 19.222656 C 11.75 26.621094 7.160156 36.828125 7.160156 48.050781 L 7.160156 177.257812 C 7.160156 188.476562 11.75 198.683594 19.140625 206.082031 C 26.53125 213.484375 36.722656 218.078125 47.929688 218.078125 L 176.976562 218.078125 C 188.183594 218.078125 198.375 213.484375 205.765625 206.082031 C 213.15625 198.683594 217.746094 188.476562 217.746094 177.257812 L 217.746094 48.050781 C 217.746094 36.828125 213.15625 26.621094 205.765625 19.222656 C 198.375 11.824219 188.183594 7.230469 176.976562 7.230469 Z M 112.453125 83.382812 C 120.523438 83.382812 127.832031 86.660156 133.121094 91.957031 C 138.414062 97.253906 141.6875 104.570312 141.6875 112.652344 C 141.6875 120.734375 138.414062 128.054688 133.121094 133.347656 C 127.832031 138.644531 120.523438 141.921875 112.453125 141.921875 C 104.378906 141.921875 97.070312 138.644531 91.78125 133.347656 C 86.492188 128.054688 83.21875 120.734375 83.21875 112.652344 C 83.21875 104.570312 86.492188 97.253906 91.78125 91.957031 C 97.070312 86.660156 104.378906 83.382812 112.453125 83.382812 "/><path style=" stroke:none;fill-rule:evenodd;fill:rgb(56.858826%,85.488892%,88.238525%);fill-opacity:1;" d="M 128.160156 96.925781 C 124.140625 92.902344 118.585938 90.410156 112.453125 90.410156 C 106.320312 90.410156 100.761719 92.902344 96.746094 96.925781 C 92.726562 100.949219 90.238281 106.511719 90.238281 112.652344 C 90.238281 118.792969 92.726562 124.355469 96.746094 128.378906 C 100.761719 132.40625 106.320312 134.894531 112.453125 134.894531 C 118.585938 134.894531 124.140625 132.40625 128.160156 128.378906 C 132.179688 124.355469 134.667969 118.792969 134.667969 112.652344 C 134.667969 106.511719 132.179688 100.949219 128.160156 96.925781 "/><path style=" stroke:none;fill-rule:evenodd;fill:rgb(94.898987%,65.489197%,33.729553%);fill-opacity:1;" d="M 192.578125 14.253906 C 201.234375 22.925781 206.609375 34.886719 206.609375 48.050781 L 206.609375 177.257812 C 206.609375 190.417969 201.234375 202.382812 192.578125 211.050781 C 190.246094 213.386719 187.679688 215.476562 184.917969 217.292969 C 192.957031 215.683594 200.164062 211.691406 205.765625 206.082031 C 213.15625 198.683594 217.746094 188.476562 217.746094 177.257812 L 217.746094 48.050781 C 217.746094 36.828125 213.15625 26.621094 205.765625 19.222656 C 200.164062 13.617188 192.957031 9.617188 184.917969 8.011719 C 187.679688 9.828125 190.246094 11.921875 192.578125 14.253906 "/><path style=" stroke:none;fill-rule:evenodd;fill:rgb(39.219666%,66.668701%,68.629456%);fill-opacity:1;" d="M 134.667969 112.652344 C 134.667969 106.511719 132.179688 100.949219 128.160156 96.925781 C 124.765625 93.527344 120.273438 91.222656 115.261719 90.585938 C 115.765625 91.027344 116.253906 91.484375 116.726562 91.957031 C 122.015625 97.253906 125.285156 104.570312 125.285156 112.652344 C 125.285156 120.734375 122.015625 128.054688 116.726562 133.347656 C 116.253906 133.824219 115.765625 134.277344 115.261719 134.71875 C 120.273438 134.085938 124.765625 131.78125 128.160156 128.378906 C 132.179688 124.355469 134.667969 118.792969 134.667969 112.652344 "/></g></svg>